<svg width="150" height="150" viewBox="0 0 150 150" fill="none" xmlns="http://www.w3.org/2000/svg">
<g filter="url(#filter0_d_564_862)">
<path d="M35.678 12.2731C37.2088 12.2731 38.4497 10.9572 38.4497 9.33383C38.4497 7.7105 37.2088 6.39453 35.678 6.39453C34.1472 6.39453 32.9062 7.7105 32.9062 9.33383C32.9062 10.9572 34.1472 12.2731 35.678 12.2731Z" fill="black"/>
<path d="M73.7036 124.529C104.488 124.529 129.444 98.105 129.444 65.5092C129.444 32.9134 104.488 6.48926 73.7036 6.48926C42.9189 6.48926 17.9629 32.9134 17.9629 65.5092C17.9629 98.105 42.9189 124.529 73.7036 124.529Z" fill="#156EFF"/>
<path d="M96.1633 31.1953H136.8C138.974 31.1953 141.06 32.1101 142.598 33.7384C144.136 35.3668 145 37.5753 145 39.8781V124.529H87.9629V39.8781C87.9629 37.5753 88.8269 35.3668 90.3647 33.7384C91.9026 32.1101 93.9884 31.1953 96.1633 31.1953Z" fill="white" stroke="black" stroke-width="2" stroke-linecap="round" stroke-linejoin="round"/>
<path d="M87.9629 124.529H145V132.317C145 134.62 144.136 136.829 142.598 138.457C141.06 140.085 138.974 141 136.8 141H96.1633C93.9884 141 91.9026 140.085 90.3647 138.457C88.8269 136.829 87.9629 134.62 87.9629 132.317V124.529Z" fill="#156EFF" stroke="black" stroke-width="2" stroke-linecap="round" stroke-linejoin="round"/>
<path d="M13.2004 31.1953H53.8367C56.0115 31.1953 58.0973 32.1101 59.6352 33.7384C61.1731 35.3668 62.037 37.5753 62.037 39.8781V124.529H5V39.8781C5 37.5753 5.86396 35.3668 7.40183 33.7384C8.9397 32.1101 11.0255 31.1953 13.2004 31.1953Z" fill="white" stroke="black" stroke-width="2" stroke-linecap="round" stroke-linejoin="round"/>
<path d="M5 124.529H62.037V132.317C62.037 134.62 61.1731 136.829 59.6352 138.457C58.0973 140.085 56.0115 141 53.8367 141H13.2004C11.0255 141 8.9397 140.085 7.40183 138.457C5.86397 136.829 5 134.62 5 132.317V124.529Z" fill="#156EFF" stroke="black" stroke-width="2" stroke-linecap="round" stroke-linejoin="round"/>
<path d="M33.5184 135.518C34.9502 135.518 36.111 134.287 36.111 132.769C36.111 131.25 34.9502 130.02 33.5184 130.02C32.0865 130.02 30.9258 131.25 30.9258 132.769C30.9258 134.287 32.0865 135.518 33.5184 135.518Z" fill="black"/>
<path d="M46.481 105.313H54.2588V84.2675C54.2588 81.8407 53.3483 79.5132 51.7277 77.7972C50.107 76.0812 47.9089 75.1172 45.6169 75.1172H21.4195C19.1275 75.1172 16.9294 76.0812 15.3087 77.7972C13.688 79.5132 12.7774 81.8406 12.7773 84.2675V124.529H46.481V105.313Z" fill="#156EFF" stroke="black" stroke-width="2" stroke-linecap="round" stroke-linejoin="round"/>
<path d="M33.5188 44.9209C36.2692 44.9209 38.9069 46.0778 40.8518 48.137C42.7966 50.1962 43.8892 52.9892 43.8892 55.9014V75.1172H34.8628C31.756 75.1172 28.7764 73.8104 26.5795 71.4843C24.3826 69.1581 23.1484 66.0033 23.1484 62.7136V55.9014C23.1484 52.9892 24.241 50.1962 26.1858 48.137C28.1307 46.0778 30.7684 44.9209 33.5188 44.9209Z" fill="#FFA97D" stroke="black" stroke-width="2" stroke-linecap="round" stroke-linejoin="round"/>
<path d="M20.5547 91.5879V124.529" stroke="black" stroke-width="2" stroke-linecap="round" stroke-linejoin="round"/>
<path d="M46.4824 93.1909V108.058H64.6306V99.8231H54.2602V88.7686" fill="#156EFF"/>
<path d="M46.4824 93.1909V108.058H64.6306V99.8231H54.2602V88.7686" stroke="black" stroke-width="2" stroke-linecap="round" stroke-linejoin="round"/>
<path d="M64.6289 99.8232H71.1104C72.1418 99.8232 73.1309 100.257 73.8602 101.029C74.5896 101.801 74.9993 102.849 74.9993 103.941C74.9993 105.033 74.5896 106.08 73.8602 106.853C73.1309 107.625 72.1418 108.059 71.1104 108.059H64.6289V99.8232Z" fill="#FFA97D" stroke="black" stroke-width="2" stroke-linecap="round" stroke-linejoin="round"/>
<path d="M103.518 105.313H95.7402V84.2675C95.7402 81.8407 96.6507 79.5132 98.2714 77.7972C99.892 76.0812 102.09 75.1172 104.382 75.1172H128.58C130.872 75.1172 133.07 76.0812 134.69 77.7972C136.311 79.5132 137.222 81.8406 137.222 84.2675V124.529H103.518V105.313Z" fill="#156EFF" stroke="black" stroke-width="2" stroke-linecap="round" stroke-linejoin="round"/>
<path d="M115.137 75.1172H106.111V55.9014C106.111 52.9892 107.203 50.1963 109.148 48.137C111.093 46.0778 113.731 44.9209 116.481 44.9209C119.232 44.9209 121.869 46.0778 123.814 48.137C125.759 50.1963 126.852 52.9892 126.852 55.9014V62.7137C126.852 66.0033 125.617 69.1582 123.42 71.4843C121.224 73.8104 118.244 75.1172 115.137 75.1172Z" fill="#FFD5BE" stroke="black" stroke-width="2" stroke-linecap="round" stroke-linejoin="round"/>
<path d="M129.445 91.5879V124.529" stroke="black" stroke-width="2" stroke-linecap="round" stroke-linejoin="round"/>
<path d="M103.519 93.1909V108.058H85.3711V99.8231H95.7415V88.7686" fill="#156EFF"/>
<path d="M103.519 93.1909V108.058H85.3711V99.8231H95.7415V88.7686" stroke="black" stroke-width="2" stroke-linecap="round" stroke-linejoin="round"/>
<path d="M85.3711 108.059H78.8896C77.8582 108.059 76.8691 107.625 76.1398 106.853C75.4104 106.08 75.0007 105.033 75.0007 103.941C75.0007 102.849 75.4104 101.801 76.1398 101.029C76.8691 100.257 77.8582 99.8232 78.8896 99.8232H85.3711V108.059Z" fill="#FFD5BE" stroke="black" stroke-width="2" stroke-linecap="round" stroke-linejoin="round"/>
<path d="M105.037 10.8423L112.37 18.6066" stroke="black" stroke-width="2" stroke-linecap="round" stroke-linejoin="round"/>
<path d="M112.37 10.8423L105.037 18.6066" stroke="black" stroke-width="2" stroke-linecap="round" stroke-linejoin="round"/>
<path d="M116.481 135.518C117.913 135.518 119.074 134.287 119.074 132.769C119.074 131.25 117.913 130.02 116.481 130.02C115.049 130.02 113.889 131.25 113.889 132.769C113.889 134.287 115.049 135.518 116.481 135.518Z" fill="black"/>
<path d="M78.8897 14.7256C82.4693 14.7256 85.3712 11.653 85.3712 7.86278C85.3712 4.07257 82.4693 1 78.8897 1C75.3101 1 72.4082 4.07257 72.4082 7.86278C72.4082 11.653 75.3101 14.7256 78.8897 14.7256Z" stroke="black" stroke-width="2" stroke-linecap="round" stroke-linejoin="round"/>
</g>
<defs>
<filter id="filter0_d_564_862" x="0" y="0" width="150" height="150" filterUnits="userSpaceOnUse" color-interpolation-filters="sRGB">
<feFlood flood-opacity="0" result="BackgroundImageFix"/>
<feColorMatrix in="SourceAlpha" type="matrix" values="0 0 0 0 0 0 0 0 0 0 0 0 0 0 0 0 0 0 127 0" result="hardAlpha"/>
<feOffset dy="4"/>
<feGaussianBlur stdDeviation="2"/>
<feComposite in2="hardAlpha" operator="out"/>
<feColorMatrix type="matrix" values="0 0 0 0 0 0 0 0 0 0 0 0 0 0 0 0 0 0 0.25 0"/>
<feBlend mode="normal" in2="BackgroundImageFix" result="effect1_dropShadow_564_862"/>
<feBlend mode="normal" in="SourceGraphic" in2="effect1_dropShadow_564_862" result="shape"/>
</filter>
</defs>
</svg>
