<svg width="140" height="140" viewBox="0 0 140 140" fill="none" xmlns="http://www.w3.org/2000/svg">
<g clip-path="url(#clip0_564_819)">
<path d="M121.48 72.479C121.48 99.9897 99.1786 122.292 71.668 122.292C44.1573 122.292 21.8555 99.9897 21.8555 72.479C21.8555 44.9683 44.1573 22.6665 71.668 22.6665C99.1786 22.6665 121.48 44.9683 121.48 72.479Z" fill="#156EFF" stroke="black"/>
<g filter="url(#filter0_d_564_819)">
<path d="M80.4781 123.462L82.95 124.95C84.1961 125.732 85.6855 126.03 87.1366 125.788C88.5877 125.547 89.8999 124.781 90.825 123.637C91.3089 122.991 91.6525 122.251 91.8338 121.464C92.015 120.677 92.0299 119.862 91.8776 119.069C91.7252 118.276 91.4088 117.524 90.9488 116.86C90.4888 116.197 89.8953 115.636 89.2062 115.216L92.2031 117.009C93.4478 117.796 94.9385 118.097 96.3909 117.855C97.8434 117.613 99.1559 116.845 100.078 115.697C100.579 115.048 100.937 114.3 101.127 113.503C101.317 112.705 101.335 111.877 101.18 111.072C101.024 110.267 100.7 109.504 100.227 108.834C99.754 108.165 99.1441 107.603 98.4375 107.187L101.456 108.981C102.701 109.768 104.192 110.069 105.644 109.827C107.096 109.585 108.409 108.817 109.331 107.669C109.817 107.021 110.16 106.278 110.34 105.489C110.52 104.7 110.532 103.882 110.375 103.088C110.218 102.294 109.896 101.541 109.43 100.88C108.964 100.218 108.364 99.6616 107.669 99.2469L106.706 98.6562L109.375 96.25L99.9031 81.9219L72.9312 60.725L69.5406 57.8375C66.5056 55.2622 62.803 53.5995 58.8618 53.042C54.9206 52.4845 50.9021 53.055 47.2719 54.6875C43.8899 56.1932 40.1606 56.7454 36.4875 56.2844L26.6875 55.0594L17.5 50.3125L6.5625 76.5625L15.1156 83.8469L30.625 103.119L65.275 127.181L71.225 131.25L73.9812 133.022C75.2961 133.811 76.8699 134.046 78.3581 133.677C79.8463 133.308 81.1277 132.365 81.9219 131.053C82.7087 129.736 82.941 128.16 82.5678 126.671C82.1946 125.183 81.2465 123.903 79.9312 123.112L76.5625 121.166" fill="#BF7E68"/>
<path d="M80.4781 123.462L82.95 124.95C84.1961 125.732 85.6855 126.03 87.1366 125.788C88.5877 125.547 89.8999 124.781 90.825 123.637C91.3089 122.991 91.6525 122.251 91.8338 121.464C92.015 120.677 92.0299 119.862 91.8776 119.069C91.7252 118.276 91.4088 117.524 90.9488 116.86C90.4888 116.197 89.8953 115.636 89.2062 115.216L92.2031 117.009C93.4478 117.796 94.9385 118.097 96.3909 117.855C97.8434 117.613 99.1559 116.845 100.078 115.697C100.579 115.048 100.937 114.3 101.127 113.503C101.317 112.705 101.335 111.877 101.18 111.072C101.024 110.267 100.7 109.504 100.227 108.834C99.754 108.165 99.1441 107.603 98.4375 107.187L101.456 108.981C102.701 109.768 104.192 110.069 105.644 109.827C107.096 109.585 108.409 108.817 109.331 107.669C109.817 107.021 110.16 106.278 110.34 105.489C110.52 104.7 110.532 103.882 110.375 103.088C110.218 102.294 109.896 101.541 109.43 100.88C108.964 100.218 108.364 99.6616 107.669 99.2469L106.706 98.6562L109.375 96.25L99.9031 81.9219L72.9312 60.725L69.5406 57.8375C66.5056 55.2622 62.803 53.5995 58.8618 53.042C54.9206 52.4845 50.9021 53.055 47.2719 54.6875C43.8899 56.1932 40.1606 56.7454 36.4875 56.2844L26.6875 55.0594L17.5 50.3125L6.5625 76.5625L15.1156 83.8469L30.625 103.119L65.275 127.181L71.225 131.25L73.9812 133.022C75.2961 133.811 76.8699 134.046 78.3581 133.677C79.8463 133.308 81.1277 132.365 81.9219 131.053C82.7087 129.736 82.941 128.16 82.5678 126.671C82.1947 125.183 81.2465 123.903 79.9312 123.112L76.5625 121.166" stroke="black" stroke-width="2" stroke-linecap="round" stroke-linejoin="round"/>
</g>
<path d="M121.406 129.062C124.427 129.062 126.875 126.614 126.875 123.594C126.875 120.573 124.427 118.125 121.406 118.125C118.386 118.125 115.938 120.573 115.938 123.594C115.938 126.614 118.386 129.062 121.406 129.062Z" stroke="black" stroke-width="2" stroke-linecap="round" stroke-linejoin="round"/>
<path d="M127.028 37.1875C127.058 37.6557 126.948 38.1224 126.71 38.5269C126.472 38.9314 126.118 39.2551 125.694 39.456C125.27 39.6568 124.795 39.7256 124.332 39.6533C123.868 39.5811 123.437 39.3711 123.094 39.0507C122.751 38.7303 122.513 38.3142 122.409 37.8565C122.306 37.3988 122.342 36.9206 122.514 36.4839C122.686 36.0472 122.985 35.6723 123.372 35.4076C123.76 35.143 124.218 35.001 124.687 35C125.282 34.9987 125.856 35.2242 126.29 35.6306C126.725 36.0369 126.989 36.5936 127.028 37.1875Z" fill="black"/>
<g filter="url(#filter1_d_564_819)">
<path d="M118.541 48.3877L135.888 83.1252L109.638 99.3346L78.7507 83.1252C74.9882 81.9877 71.7069 79.0127 70.985 72.3846L55.1038 73.8283C53.5892 73.9685 52.0719 73.5904 50.8003 72.7559C49.5286 71.9213 48.5779 70.6798 48.1038 69.2346C47.8187 68.3861 47.706 67.4893 47.7724 66.5967C47.8389 65.7041 48.0831 64.8338 48.4907 64.037C48.8983 63.2401 49.461 62.5328 50.1459 61.9565C50.8308 61.3803 51.624 60.9468 52.4788 60.6814L75.535 53.3971C77.7163 52.7048 80.0293 52.5322 82.2892 52.893C84.5491 53.2539 86.6933 54.1381 88.5507 55.4752L89.3819 56.0658C91.3984 57.4972 93.7654 58.3549 96.2308 58.5475C98.6961 58.7401 101.168 58.2604 103.382 57.1596L118.541 48.3877Z" fill="#FFE8DC"/>
<path d="M118.541 48.3877L135.888 83.1252L109.638 99.3346L78.7507 83.1252C74.9882 81.9877 71.7069 79.0127 70.985 72.3846L55.1038 73.8283C53.5892 73.9685 52.0719 73.5904 50.8003 72.7559C49.5286 71.9213 48.5779 70.6798 48.1038 69.2346C47.8187 68.3861 47.706 67.4893 47.7724 66.5967C47.8389 65.7041 48.0831 64.8338 48.4907 64.037C48.8983 63.2401 49.461 62.5328 50.1459 61.9565C50.8308 61.3803 51.624 60.9468 52.4788 60.6814L75.535 53.3971C77.7163 52.7048 80.0293 52.5322 82.2892 52.893C84.5491 53.2539 86.6933 54.1381 88.5507 55.4752L89.3819 56.0658C91.3984 57.4972 93.7654 58.3549 96.2308 58.5475C98.6961 58.7401 101.168 58.2604 103.382 57.1596L118.541 48.3877Z" stroke="black" stroke-width="2" stroke-linecap="round" stroke-linejoin="round"/>
</g>
<path d="M92.2031 81.9219C88.5559 83.2968 84.6429 83.8205 80.7625 83.4531L78.75 83.125" fill="white"/>
<path d="M92.2031 81.9219C88.5559 83.2968 84.6429 83.8205 80.7625 83.4531L78.75 83.125" stroke="black" stroke-width="2" stroke-linecap="round" stroke-linejoin="round"/>
<path d="M28 108.106C26.918 107.02 26.3105 105.549 26.3105 104.015C26.3105 102.482 26.918 101.011 28 99.9249L30.7344 97.1905C31.8209 96.1085 33.2917 95.501 34.825 95.501C36.3584 95.501 37.8292 96.1085 38.9157 97.1905C39.9977 98.2769 40.6052 99.7478 40.6052 101.281C40.6052 102.814 39.9977 104.285 38.9157 105.372L36.1813 108.106C35.0949 109.188 33.624 109.796 32.0907 109.796C30.5573 109.796 29.0865 109.188 28 108.106Z" fill="#FFE8DC" stroke="black" stroke-width="2" stroke-linecap="round" stroke-linejoin="round"/>
<path d="M36.1818 116.266C35.1011 115.183 34.4941 113.716 34.4941 112.186C34.4941 110.656 35.1011 109.189 36.1818 108.106L41.563 102.659C42.098 102.118 42.7351 101.689 43.4372 101.396C44.1394 101.103 44.8927 100.952 45.6536 100.952C46.4145 100.952 47.1679 101.103 47.87 101.396C48.5722 101.689 49.2092 102.118 49.7442 102.659C50.8249 103.742 51.4319 105.209 51.4319 106.739C51.4319 108.269 50.8249 109.736 49.7442 110.819L44.2974 116.266C43.2193 117.338 41.7604 117.94 40.2396 117.94C38.7188 117.94 37.2598 117.338 36.1818 116.266ZM44.363 124.447C43.281 123.36 42.6735 121.89 42.6735 120.356C42.6735 118.823 43.281 117.352 44.363 116.266L52.5005 108.106C53.5869 107.024 55.0578 106.417 56.5911 106.417C58.1244 106.417 59.5953 107.024 60.6817 108.106C61.7624 109.189 62.3694 110.656 62.3694 112.186C62.3694 113.716 61.7624 115.183 60.6817 116.266L52.5005 124.447C51.4187 125.521 49.9561 126.124 48.4317 126.124C46.9074 126.124 45.4448 125.521 44.363 124.447Z" fill="#FFE8DC" stroke="black" stroke-width="2" stroke-linecap="round" stroke-linejoin="round"/>
<path d="M52.5 132.628C51.418 131.542 50.8105 130.071 50.8105 128.538C50.8105 127.004 51.418 125.533 52.5 124.447L63.4375 113.509C64.5203 112.429 65.9875 111.822 67.5172 111.822C69.047 111.822 70.5142 112.429 71.5969 113.509C72.1379 114.044 72.5674 114.681 72.8606 115.384C73.1537 116.086 73.3047 116.839 73.3047 117.6C73.3047 118.361 73.1537 119.114 72.8606 119.816C72.5674 120.519 72.1379 121.156 71.5969 121.691L60.6594 132.628C59.5739 133.703 58.1077 134.307 56.5797 134.307C55.0518 134.307 53.5856 133.703 52.5 132.628Z" fill="#FFE8DC" stroke="black" stroke-width="2" stroke-linecap="round" stroke-linejoin="round"/>
<path d="M74.375 120.313L83.125 125.125C84.4425 125.912 86.0182 126.144 87.5068 125.771C88.9953 125.398 90.2751 124.45 91.0656 123.134C91.8524 121.817 92.0847 120.241 91.7116 118.753C91.3384 117.264 90.3903 115.984 89.075 115.194L82.5125 111.234M88.5062 101.325L101.631 109.244C102.29 109.647 103.024 109.915 103.788 110.03C104.552 110.145 105.332 110.105 106.08 109.913C106.829 109.722 107.531 109.382 108.146 108.913C108.761 108.445 109.276 107.858 109.659 107.188C110.051 106.538 110.311 105.817 110.423 105.066C110.535 104.315 110.497 103.55 110.312 102.814C110.127 102.078 109.798 101.386 109.345 100.777C108.891 100.169 108.321 99.6562 107.669 99.2689L94.5438 91.3501" fill="#BF7E68"/>
<path d="M74.375 120.313L83.125 125.125C84.4425 125.912 86.0182 126.144 87.5068 125.771C88.9953 125.398 90.2751 124.45 91.0656 123.134C91.8524 121.817 92.0847 120.241 91.7116 118.753C91.3384 117.264 90.3903 115.984 89.075 115.194L82.5125 111.234M88.5062 101.325L101.631 109.244C102.29 109.647 103.024 109.915 103.788 110.03C104.552 110.145 105.332 110.105 106.08 109.913C106.829 109.722 107.531 109.382 108.146 108.913C108.761 108.445 109.276 107.858 109.659 107.188C110.051 106.538 110.311 105.817 110.423 105.066C110.535 104.315 110.497 103.55 110.312 102.814C110.127 102.078 109.798 101.386 109.345 100.777C108.891 100.169 108.321 99.6562 107.669 99.2689L94.5438 91.3501" stroke="black" stroke-width="2" stroke-linecap="round" stroke-linejoin="round"/>
<g filter="url(#filter2_d_564_819)">
<path d="M70 37.1875C77.2487 37.1875 83.125 31.3112 83.125 24.0625C83.125 16.8138 77.2487 10.9375 70 10.9375C62.7513 10.9375 56.875 16.8138 56.875 24.0625C56.875 31.3112 62.7513 37.1875 70 37.1875Z" fill="#156EFF"/>
<path d="M70 37.1875C77.2487 37.1875 83.125 31.3112 83.125 24.0625C83.125 16.8138 77.2487 10.9375 70 10.9375C62.7513 10.9375 56.875 16.8138 56.875 24.0625C56.875 31.3112 62.7513 37.1875 70 37.1875Z" stroke="black" stroke-width="2" stroke-linecap="round" stroke-linejoin="round"/>
</g>
<path d="M65.625 26.25L68.9062 28.4375L74.375 19.6875" fill="#156EFF"/>
<path d="M65.625 26.25L68.9062 28.4375L74.375 19.6875" stroke="white" stroke-width="2" stroke-linecap="round" stroke-linejoin="round"/>
</g>
<defs>
<filter id="filter0_d_564_819" x="1.5625" y="49.3125" width="113.922" height="93.5352" filterUnits="userSpaceOnUse" color-interpolation-filters="sRGB">
<feFlood flood-opacity="0" result="BackgroundImageFix"/>
<feColorMatrix in="SourceAlpha" type="matrix" values="0 0 0 0 0 0 0 0 0 0 0 0 0 0 0 0 0 0 127 0" result="hardAlpha"/>
<feOffset dy="4"/>
<feGaussianBlur stdDeviation="2"/>
<feComposite in2="hardAlpha" operator="out"/>
<feColorMatrix type="matrix" values="0 0 0 0 0 0 0 0 0 0 0 0 0 0 0 0 0 0 0.25 0"/>
<feBlend mode="normal" in2="BackgroundImageFix" result="effect1_dropShadow_564_819"/>
<feBlend mode="normal" in="SourceGraphic" in2="effect1_dropShadow_564_819" result="shape"/>
</filter>
<filter id="filter1_d_564_819" x="42.7539" y="47.3877" width="98.1348" height="60.9468" filterUnits="userSpaceOnUse" color-interpolation-filters="sRGB">
<feFlood flood-opacity="0" result="BackgroundImageFix"/>
<feColorMatrix in="SourceAlpha" type="matrix" values="0 0 0 0 0 0 0 0 0 0 0 0 0 0 0 0 0 0 127 0" result="hardAlpha"/>
<feOffset dy="4"/>
<feGaussianBlur stdDeviation="2"/>
<feComposite in2="hardAlpha" operator="out"/>
<feColorMatrix type="matrix" values="0 0 0 0 0 0 0 0 0 0 0 0 0 0 0 0 0 0 0.25 0"/>
<feBlend mode="normal" in2="BackgroundImageFix" result="effect1_dropShadow_564_819"/>
<feBlend mode="normal" in="SourceGraphic" in2="effect1_dropShadow_564_819" result="shape"/>
</filter>
<filter id="filter2_d_564_819" x="51.875" y="9.9375" width="36.25" height="36.25" filterUnits="userSpaceOnUse" color-interpolation-filters="sRGB">
<feFlood flood-opacity="0" result="BackgroundImageFix"/>
<feColorMatrix in="SourceAlpha" type="matrix" values="0 0 0 0 0 0 0 0 0 0 0 0 0 0 0 0 0 0 127 0" result="hardAlpha"/>
<feOffset dy="4"/>
<feGaussianBlur stdDeviation="2"/>
<feComposite in2="hardAlpha" operator="out"/>
<feColorMatrix type="matrix" values="0 0 0 0 0 0 0 0 0 0 0 0 0 0 0 0 0 0 0.25 0"/>
<feBlend mode="normal" in2="BackgroundImageFix" result="effect1_dropShadow_564_819"/>
<feBlend mode="normal" in="SourceGraphic" in2="effect1_dropShadow_564_819" result="shape"/>
</filter>
<clipPath id="clip0_564_819">
<rect width="140" height="140" fill="white"/>
</clipPath>
</defs>
</svg>
