<svg width="26" height="26" viewBox="0 0 26 26" fill="none" xmlns="http://www.w3.org/2000/svg">
<g clip-path="url(#clip0_268_274)">
<path d="M26 24.2356C26 24.65 25.8288 25.0474 25.524 25.3405C25.2193 25.6335 24.806 25.7981 24.375 25.7981H1.625C1.19402 25.7981 0.780698 25.6335 0.475951 25.3405C0.171205 25.0474 0 24.65 0 24.2356V2.3606C0 1.94619 0.171205 1.54877 0.475951 1.25574C0.780698 0.962716 1.19402 0.798096 1.625 0.798096L24.375 0.798096C24.806 0.798096 25.2193 0.962716 25.524 1.25574C25.8288 1.54877 26 1.94619 26 2.3606V24.2356Z" fill="white"/>
<path d="M17.875 25.7981V16.4231H21.125L21.9375 12.5168H17.875V10.9543C17.875 9.39185 18.6891 8.6106 20.3125 8.6106H21.9375V4.70435H18.6875C15.7016 4.70435 13.8125 6.95513 13.8125 10.1731V12.5168H10.5625V16.4231H13.8125V25.7981H17.875Z" fill="#3B82F6"/>
</g>
<defs>
<clipPath id="clip0_268_274">
<rect width="26" height="25" fill="white" transform="translate(0 0.798096)"/>
</clipPath>
</defs>
</svg>
