<svg width="30" height="30" viewBox="0 0 30 30" fill="none" xmlns="http://www.w3.org/2000/svg">
<path d="M26.25 13.125H8.25L12.5813 8.79375C12.9506 8.42438 13.125 7.98375 13.125 7.5C13.125 6.5775 12.3628 5.625 11.25 5.625C10.7522 5.625 10.3181 5.80594 9.95625 6.16875L2.49562 13.6294C2.18812 13.9369 1.875 14.3166 1.875 15C1.875 15.6834 2.13656 16.0125 2.48062 16.3566L9.95625 23.8312C10.3181 24.1941 10.7522 24.375 11.25 24.375C12.3637 24.375 13.125 23.4225 13.125 22.5C13.125 22.0163 12.9506 21.5756 12.5813 21.2063L8.25 16.875H26.25C26.7473 16.875 27.2242 16.6775 27.5758 16.3258C27.9275 15.9742 28.125 15.4973 28.125 15C28.125 14.5027 27.9275 14.0258 27.5758 13.6742C27.2242 13.3225 26.7473 13.125 26.25 13.125Z" fill="black"/>
</svg>
