<svg xmlns="http://www.w3.org/2000/svg" xmlns:xlink="http://www.w3.org/1999/xlink" width="500" zoomAndPan="magnify" viewBox="0 0 375 374.999991" height="500" preserveAspectRatio="xMidYMid meet" version="1.0"><defs><g/><clipPath id="2f9b204dc9"><path d="M 145 98 L 336.796875 98 L 336.796875 289.164062 L 145 289.164062 Z M 145 98 " clip-rule="nonzero"/></clipPath><clipPath id="367440324d"><path d="M 59.652344 12.019531 L 251 12.019531 L 251 203 L 59.652344 203 Z M 59.652344 12.019531 " clip-rule="nonzero"/></clipPath><clipPath id="c163ab614a"><path d="M 147.074219 0 L 250.078125 0 L 250.078125 77.414062 L 147.074219 77.414062 Z M 147.074219 0 " clip-rule="nonzero"/></clipPath><clipPath id="7b68f479f4"><path d="M 254.652344 98.355469 L 285.394531 98.355469 L 285.394531 156.976562 L 254.652344 156.976562 Z M 254.652344 98.355469 " clip-rule="nonzero"/></clipPath><clipPath id="0f208aa614"><path d="M 22 39.164062 L 224 39.164062 L 224 290 L 22 290 Z M 22 39.164062 " clip-rule="nonzero"/></clipPath><clipPath id="77a0f25370"><path d="M 157 83 L 294 83 L 294 295.90625 L 157 295.90625 Z M 157 83 " clip-rule="nonzero"/></clipPath><clipPath id="caf084fe30"><path d="M 62 39.164062 L 280 39.164062 L 280 155 L 62 155 Z M 62 39.164062 " clip-rule="nonzero"/></clipPath><clipPath id="8d3b9af13c"><path d="M 174.609375 55.410156 L 243.78125 55.410156 L 243.78125 82.84375 L 174.609375 82.84375 Z M 174.609375 55.410156 " clip-rule="nonzero"/></clipPath></defs><g fill="#000000" fill-opacity="1"><g transform="translate(50.240631, 334.428313)"><g><path d="M 13.671875 -18.890625 C 13.179688 -19.171875 12.734375 -19.414062 12.328125 -19.625 C 11.929688 -19.832031 11.5625 -20.007812 11.21875 -20.15625 C 10.875 -20.300781 10.550781 -20.40625 10.25 -20.46875 C 9.945312 -20.539062 9.644531 -20.578125 9.34375 -20.578125 C 8.945312 -20.578125 8.5625 -20.53125 8.1875 -20.4375 C 7.8125 -20.351562 7.476562 -20.210938 7.1875 -20.015625 C 6.90625 -19.816406 6.675781 -19.550781 6.5 -19.21875 C 6.320312 -18.894531 6.234375 -18.5 6.234375 -18.03125 C 6.234375 -17.59375 6.332031 -17.207031 6.53125 -16.875 C 6.738281 -16.550781 7.007812 -16.253906 7.34375 -15.984375 C 7.6875 -15.710938 8.078125 -15.46875 8.515625 -15.25 C 8.953125 -15.03125 9.40625 -14.816406 9.875 -14.609375 C 10.40625 -14.359375 10.945312 -14.101562 11.5 -13.84375 C 12.050781 -13.582031 12.582031 -13.289062 13.09375 -12.96875 C 13.601562 -12.65625 14.082031 -12.3125 14.53125 -11.9375 C 14.988281 -11.5625 15.382812 -11.140625 15.71875 -10.671875 C 16.050781 -10.203125 16.3125 -9.675781 16.5 -9.09375 C 16.695312 -8.519531 16.796875 -7.882812 16.796875 -7.1875 C 16.796875 -5.945312 16.539062 -4.859375 16.03125 -3.921875 C 15.519531 -2.992188 14.835938 -2.21875 13.984375 -1.59375 C 13.140625 -0.976562 12.160156 -0.515625 11.046875 -0.203125 C 9.941406 0.109375 8.800781 0.265625 7.625 0.265625 C 6.28125 0.265625 5.039062 0.078125 3.90625 -0.296875 C 2.769531 -0.671875 1.628906 -1.21875 0.484375 -1.9375 L 2.6875 -5.578125 C 2.976562 -5.390625 3.320312 -5.175781 3.71875 -4.9375 C 4.113281 -4.707031 4.53125 -4.5 4.96875 -4.3125 C 5.414062 -4.125 5.863281 -3.960938 6.3125 -3.828125 C 6.757812 -3.691406 7.1875 -3.625 7.59375 -3.625 C 8.0625 -3.625 8.523438 -3.679688 8.984375 -3.796875 C 9.453125 -3.910156 9.863281 -4.097656 10.21875 -4.359375 C 10.570312 -4.628906 10.859375 -4.96875 11.078125 -5.375 C 11.304688 -5.789062 11.421875 -6.296875 11.421875 -6.890625 C 11.421875 -7.472656 11.285156 -7.976562 11.015625 -8.40625 C 10.753906 -8.84375 10.410156 -9.226562 9.984375 -9.5625 C 9.566406 -9.894531 9.09375 -10.195312 8.5625 -10.46875 C 8.03125 -10.75 7.488281 -11.015625 6.9375 -11.265625 C 6.164062 -11.628906 5.410156 -12.003906 4.671875 -12.390625 C 3.929688 -12.785156 3.265625 -13.226562 2.671875 -13.71875 C 2.078125 -14.207031 1.597656 -14.765625 1.234375 -15.390625 C 0.867188 -16.015625 0.6875 -16.75 0.6875 -17.59375 C 0.6875 -18.664062 0.921875 -19.617188 1.390625 -20.453125 C 1.867188 -21.296875 2.5 -22.003906 3.28125 -22.578125 C 4.0625 -23.148438 4.945312 -23.582031 5.9375 -23.875 C 6.925781 -24.164062 7.9375 -24.3125 8.96875 -24.3125 C 10.21875 -24.3125 11.414062 -24.113281 12.5625 -23.71875 C 13.71875 -23.332031 14.890625 -22.742188 16.078125 -21.953125 Z M 13.671875 -18.890625 "/></g></g></g><g fill="#000000" fill-opacity="1"><g transform="translate(77.1719, 334.428313)"><g><path d="M 17.40625 -3.65625 L 16.984375 0 L 1.640625 0 L 1.90625 -3.703125 L 1.90625 -20.25 L 1.34375 -24.046875 L 16.8125 -24.046875 L 16.8125 -20.390625 L 7.296875 -20.390625 L 7.53125 -18.171875 L 7.53125 -14.6875 L 15.765625 -14.6875 L 15.765625 -11.265625 L 7.53125 -11.265625 L 7.53125 -5.765625 L 7.40625 -3.65625 Z M 17.40625 -3.65625 "/></g></g></g><g fill="#000000" fill-opacity="1"><g transform="translate(105.706143, 334.428313)"><g><path d="M 8.359375 -9.046875 C 8.234375 -9.191406 8.097656 -9.273438 7.953125 -9.296875 C 7.804688 -9.328125 7.6875 -9.34375 7.59375 -9.34375 L 7.59375 0 L 1.953125 0 L 1.953125 -20.234375 L 1.34375 -23.765625 C 1.820312 -23.816406 2.363281 -23.867188 2.96875 -23.921875 C 3.582031 -23.984375 4.203125 -24.035156 4.828125 -24.078125 C 5.460938 -24.117188 6.082031 -24.148438 6.6875 -24.171875 C 7.289062 -24.203125 7.828125 -24.21875 8.296875 -24.21875 C 9.765625 -24.21875 11.097656 -24.070312 12.296875 -23.78125 C 13.503906 -23.488281 14.535156 -23.050781 15.390625 -22.46875 C 16.253906 -21.882812 16.921875 -21.160156 17.390625 -20.296875 C 17.867188 -19.441406 18.109375 -18.453125 18.109375 -17.328125 C 18.109375 -16.171875 17.929688 -15.175781 17.578125 -14.34375 C 17.222656 -13.519531 16.738281 -12.816406 16.125 -12.234375 C 15.519531 -11.648438 14.816406 -11.171875 14.015625 -10.796875 C 13.222656 -10.429688 12.394531 -10.128906 11.53125 -9.890625 L 13.765625 -9.359375 L 20.765625 0 L 14.859375 0 Z M 7.59375 -18.109375 L 7.59375 -12.859375 L 8.625 -12.859375 C 9.34375 -12.859375 9.960938 -12.972656 10.484375 -13.203125 C 11.015625 -13.429688 11.453125 -13.738281 11.796875 -14.125 C 12.148438 -14.507812 12.410156 -14.957031 12.578125 -15.46875 C 12.753906 -15.976562 12.84375 -16.519531 12.84375 -17.09375 C 12.84375 -17.84375 12.71875 -18.460938 12.46875 -18.953125 C 12.21875 -19.441406 11.894531 -19.832031 11.5 -20.125 C 11.101562 -20.414062 10.65625 -20.617188 10.15625 -20.734375 C 9.65625 -20.859375 9.164062 -20.921875 8.6875 -20.921875 L 7.84375 -20.921875 C 7.757812 -20.921875 7.675781 -20.914062 7.59375 -20.90625 C 7.507812 -20.90625 7.421875 -20.898438 7.328125 -20.890625 Z M 7.59375 -18.109375 "/></g></g></g><g fill="#000000" fill-opacity="1"><g transform="translate(135.843358, 334.428313)"><g><path d="M 20.6875 -24.046875 L 14.109375 -3.265625 L 13.640625 0.40625 L 7.390625 -0.078125 L -0.25 -23.921875 L 4.90625 -24.46875 L 8.96875 -11.21875 L 10.46875 -4.171875 L 11.578125 -11.21875 L 15.546875 -24.046875 Z M 20.6875 -24.046875 "/></g></g></g><g fill="#000000" fill-opacity="1"><g transform="translate(165.98058, 334.428313)"><g><path d="M 17.40625 -3.65625 L 16.984375 0 L 1.640625 0 L 1.90625 -3.703125 L 1.90625 -20.25 L 1.34375 -24.046875 L 16.8125 -24.046875 L 16.8125 -20.390625 L 7.296875 -20.390625 L 7.53125 -18.171875 L 7.53125 -14.6875 L 15.765625 -14.6875 L 15.765625 -11.265625 L 7.53125 -11.265625 L 7.53125 -5.765625 L 7.40625 -3.65625 Z M 17.40625 -3.65625 "/></g></g></g><g fill="#000000" fill-opacity="1"><g transform="translate(194.514827, 334.428313)"><g><path d="M 1.984375 -10 L 12.046875 -10 L 12.046875 -6.40625 L 1.984375 -6.40625 Z M 1.984375 -10 "/></g></g></g><g fill="#000000" fill-opacity="1"><g transform="translate(218.240151, 334.428313)"><g><path d="M 17.40625 -3.65625 L 16.984375 0 L 1.640625 0 L 1.90625 -3.703125 L 1.90625 -20.25 L 1.34375 -24.046875 L 16.8125 -24.046875 L 16.8125 -20.390625 L 7.296875 -20.390625 L 7.53125 -18.171875 L 7.53125 -14.6875 L 15.765625 -14.6875 L 15.765625 -11.265625 L 7.53125 -11.265625 L 7.53125 -5.765625 L 7.40625 -3.65625 Z M 17.40625 -3.65625 "/></g></g></g><g fill="#000000" fill-opacity="1"><g transform="translate(246.774397, 334.428313)"><g><path d="M 0.09375 0 L 6.484375 -20.578125 L 7.03125 -23.953125 L 13.09375 -24.453125 L 20.78125 0 L 15.296875 0 L 13.4375 -6.84375 L 7.15625 -6.84375 L 5.34375 0 Z M 10.296875 -21.8125 L 9.4375 -15.875 L 8.09375 -10.359375 L 12.484375 -10.359375 L 11.125 -15.875 Z M 10.296875 -21.8125 "/></g></g></g><g fill="#000000" fill-opacity="1"><g transform="translate(276.911619, 334.428313)"><g><path d="M 13.671875 -18.890625 C 13.179688 -19.171875 12.734375 -19.414062 12.328125 -19.625 C 11.929688 -19.832031 11.5625 -20.007812 11.21875 -20.15625 C 10.875 -20.300781 10.550781 -20.40625 10.25 -20.46875 C 9.945312 -20.539062 9.644531 -20.578125 9.34375 -20.578125 C 8.945312 -20.578125 8.5625 -20.53125 8.1875 -20.4375 C 7.8125 -20.351562 7.476562 -20.210938 7.1875 -20.015625 C 6.90625 -19.816406 6.675781 -19.550781 6.5 -19.21875 C 6.320312 -18.894531 6.234375 -18.5 6.234375 -18.03125 C 6.234375 -17.59375 6.332031 -17.207031 6.53125 -16.875 C 6.738281 -16.550781 7.007812 -16.253906 7.34375 -15.984375 C 7.6875 -15.710938 8.078125 -15.46875 8.515625 -15.25 C 8.953125 -15.03125 9.40625 -14.816406 9.875 -14.609375 C 10.40625 -14.359375 10.945312 -14.101562 11.5 -13.84375 C 12.050781 -13.582031 12.582031 -13.289062 13.09375 -12.96875 C 13.601562 -12.65625 14.082031 -12.3125 14.53125 -11.9375 C 14.988281 -11.5625 15.382812 -11.140625 15.71875 -10.671875 C 16.050781 -10.203125 16.3125 -9.675781 16.5 -9.09375 C 16.695312 -8.519531 16.796875 -7.882812 16.796875 -7.1875 C 16.796875 -5.945312 16.539062 -4.859375 16.03125 -3.921875 C 15.519531 -2.992188 14.835938 -2.21875 13.984375 -1.59375 C 13.140625 -0.976562 12.160156 -0.515625 11.046875 -0.203125 C 9.941406 0.109375 8.800781 0.265625 7.625 0.265625 C 6.28125 0.265625 5.039062 0.078125 3.90625 -0.296875 C 2.769531 -0.671875 1.628906 -1.21875 0.484375 -1.9375 L 2.6875 -5.578125 C 2.976562 -5.390625 3.320312 -5.175781 3.71875 -4.9375 C 4.113281 -4.707031 4.53125 -4.5 4.96875 -4.3125 C 5.414062 -4.125 5.863281 -3.960938 6.3125 -3.828125 C 6.757812 -3.691406 7.1875 -3.625 7.59375 -3.625 C 8.0625 -3.625 8.523438 -3.679688 8.984375 -3.796875 C 9.453125 -3.910156 9.863281 -4.097656 10.21875 -4.359375 C 10.570312 -4.628906 10.859375 -4.96875 11.078125 -5.375 C 11.304688 -5.789062 11.421875 -6.296875 11.421875 -6.890625 C 11.421875 -7.472656 11.285156 -7.976562 11.015625 -8.40625 C 10.753906 -8.84375 10.410156 -9.226562 9.984375 -9.5625 C 9.566406 -9.894531 9.09375 -10.195312 8.5625 -10.46875 C 8.03125 -10.75 7.488281 -11.015625 6.9375 -11.265625 C 6.164062 -11.628906 5.410156 -12.003906 4.671875 -12.390625 C 3.929688 -12.785156 3.265625 -13.226562 2.671875 -13.71875 C 2.078125 -14.207031 1.597656 -14.765625 1.234375 -15.390625 C 0.867188 -16.015625 0.6875 -16.75 0.6875 -17.59375 C 0.6875 -18.664062 0.921875 -19.617188 1.390625 -20.453125 C 1.867188 -21.296875 2.5 -22.003906 3.28125 -22.578125 C 4.0625 -23.148438 4.945312 -23.582031 5.9375 -23.875 C 6.925781 -24.164062 7.9375 -24.3125 8.96875 -24.3125 C 10.21875 -24.3125 11.414062 -24.113281 12.5625 -23.71875 C 13.71875 -23.332031 14.890625 -22.742188 16.078125 -21.953125 Z M 13.671875 -18.890625 "/></g></g></g><g fill="#000000" fill-opacity="1"><g transform="translate(303.842879, 334.428313)"><g><path d="M 17.40625 -3.65625 L 16.984375 0 L 1.640625 0 L 1.90625 -3.703125 L 1.90625 -20.25 L 1.34375 -24.046875 L 16.8125 -24.046875 L 16.8125 -20.390625 L 7.296875 -20.390625 L 7.53125 -18.171875 L 7.53125 -14.6875 L 15.765625 -14.6875 L 15.765625 -11.265625 L 7.53125 -11.265625 L 7.53125 -5.765625 L 7.40625 -3.65625 Z M 17.40625 -3.65625 "/></g></g></g><g fill="#f43959" fill-opacity="1"><g transform="translate(85.006373, 368.262456)"><g><path d="M 17.015625 -5.375 C 17.015625 -3.539062 16.335938 -2.140625 14.984375 -1.171875 C 13.628906 -0.210938 11.640625 0.265625 9.015625 0.265625 C 6.628906 0.265625 4.753906 -0.15625 3.390625 -1 C 2.035156 -1.851562 1.164062 -3.140625 0.78125 -4.859375 L 4.546875 -5.484375 C 4.804688 -4.492188 5.304688 -3.773438 6.046875 -3.328125 C 6.785156 -2.878906 7.8125 -2.65625 9.125 -2.65625 C 11.851562 -2.65625 13.21875 -3.484375 13.21875 -5.140625 C 13.21875 -5.671875 13.0625 -6.109375 12.75 -6.453125 C 12.4375 -6.796875 11.992188 -7.082031 11.421875 -7.3125 C 10.847656 -7.539062 9.757812 -7.820312 8.15625 -8.15625 C 6.757812 -8.476562 5.785156 -8.738281 5.234375 -8.9375 C 4.691406 -9.132812 4.195312 -9.367188 3.75 -9.640625 C 3.3125 -9.910156 2.9375 -10.234375 2.625 -10.609375 C 2.320312 -10.984375 2.082031 -11.425781 1.90625 -11.9375 C 1.738281 -12.457031 1.65625 -13.046875 1.65625 -13.703125 C 1.65625 -15.390625 2.285156 -16.679688 3.546875 -17.578125 C 4.816406 -18.472656 6.660156 -18.921875 9.078125 -18.921875 C 11.390625 -18.921875 13.125 -18.554688 14.28125 -17.828125 C 15.4375 -17.109375 16.1875 -15.914062 16.53125 -14.25 L 12.734375 -13.734375 C 12.546875 -14.535156 12.148438 -15.140625 11.546875 -15.546875 C 10.953125 -15.953125 10.101562 -16.15625 9 -16.15625 C 6.632812 -16.15625 5.453125 -15.414062 5.453125 -13.9375 C 5.453125 -13.445312 5.578125 -13.046875 5.828125 -12.734375 C 6.078125 -12.429688 6.445312 -12.171875 6.9375 -11.953125 C 7.4375 -11.734375 8.441406 -11.460938 9.953125 -11.140625 C 11.742188 -10.753906 13.023438 -10.398438 13.796875 -10.078125 C 14.566406 -9.765625 15.175781 -9.394531 15.625 -8.96875 C 16.070312 -8.539062 16.414062 -8.023438 16.65625 -7.421875 C 16.894531 -6.828125 17.015625 -6.144531 17.015625 -5.375 Z M 17.015625 -5.375 "/></g></g></g><g fill="#f43959" fill-opacity="1"><g transform="translate(103.07798, 368.262456)"><g><path d="M 7.75 0.265625 C 5.601562 0.265625 3.953125 -0.367188 2.796875 -1.640625 C 1.640625 -2.921875 1.0625 -4.78125 1.0625 -7.21875 C 1.0625 -9.582031 1.644531 -11.398438 2.8125 -12.671875 C 3.988281 -13.941406 5.65625 -14.578125 7.8125 -14.578125 C 9.863281 -14.578125 11.429688 -13.894531 12.515625 -12.53125 C 13.597656 -11.164062 14.140625 -9.171875 14.140625 -6.546875 L 14.140625 -6.4375 L 4.96875 -6.4375 C 4.96875 -5.050781 5.222656 -4 5.734375 -3.28125 C 6.253906 -2.570312 6.988281 -2.21875 7.9375 -2.21875 C 9.25 -2.21875 10.078125 -2.785156 10.421875 -3.921875 L 13.9375 -3.625 C 12.914062 -1.03125 10.851562 0.265625 7.75 0.265625 Z M 7.75 -12.234375 C 6.875 -12.234375 6.203125 -11.925781 5.734375 -11.3125 C 5.265625 -10.707031 5.015625 -9.859375 4.984375 -8.765625 L 10.546875 -8.765625 C 10.472656 -9.921875 10.191406 -10.785156 9.703125 -11.359375 C 9.222656 -11.941406 8.570312 -12.234375 7.75 -12.234375 Z M 7.75 -12.234375 "/></g></g></g><g fill="#f43959" fill-opacity="1"><g transform="translate(118.14648, 368.262456)"><g><path d="M 1.890625 0 L 1.890625 -10.953125 C 1.890625 -11.734375 1.878906 -12.382812 1.859375 -12.90625 C 1.835938 -13.4375 1.8125 -13.90625 1.78125 -14.3125 L 5.328125 -14.3125 C 5.359375 -14.15625 5.394531 -13.671875 5.4375 -12.859375 C 5.476562 -12.054688 5.5 -11.523438 5.5 -11.265625 L 5.5625 -11.265625 C 5.914062 -12.265625 6.234375 -12.96875 6.515625 -13.375 C 6.804688 -13.789062 7.144531 -14.097656 7.53125 -14.296875 C 7.914062 -14.492188 8.398438 -14.59375 8.984375 -14.59375 C 9.460938 -14.59375 9.847656 -14.523438 10.140625 -14.390625 L 10.140625 -11.28125 C 9.535156 -11.414062 9.003906 -11.484375 8.546875 -11.484375 C 7.617188 -11.484375 6.894531 -11.109375 6.375 -10.359375 C 5.863281 -9.609375 5.609375 -8.5 5.609375 -7.03125 L 5.609375 0 Z M 1.890625 0 "/></g></g></g><g fill="#f43959" fill-opacity="1"><g transform="translate(128.690462, 368.262456)"><g><path d="M 9.671875 0 L 5.21875 0 L 0.109375 -14.3125 L 4.03125 -14.3125 L 6.53125 -6.3125 C 6.664062 -5.875 6.976562 -4.769531 7.46875 -3 C 7.5625 -3.363281 7.742188 -4 8.015625 -4.90625 C 8.285156 -5.8125 9.300781 -8.945312 11.0625 -14.3125 L 14.953125 -14.3125 Z M 9.671875 0 "/></g></g></g><g fill="#f43959" fill-opacity="1"><g transform="translate(143.758961, 368.262456)"><g><path d="M 7.75 0.265625 C 5.601562 0.265625 3.953125 -0.367188 2.796875 -1.640625 C 1.640625 -2.921875 1.0625 -4.78125 1.0625 -7.21875 C 1.0625 -9.582031 1.644531 -11.398438 2.8125 -12.671875 C 3.988281 -13.941406 5.65625 -14.578125 7.8125 -14.578125 C 9.863281 -14.578125 11.429688 -13.894531 12.515625 -12.53125 C 13.597656 -11.164062 14.140625 -9.171875 14.140625 -6.546875 L 14.140625 -6.4375 L 4.96875 -6.4375 C 4.96875 -5.050781 5.222656 -4 5.734375 -3.28125 C 6.253906 -2.570312 6.988281 -2.21875 7.9375 -2.21875 C 9.25 -2.21875 10.078125 -2.785156 10.421875 -3.921875 L 13.9375 -3.625 C 12.914062 -1.03125 10.851562 0.265625 7.75 0.265625 Z M 7.75 -12.234375 C 6.875 -12.234375 6.203125 -11.925781 5.734375 -11.3125 C 5.265625 -10.707031 5.015625 -9.859375 4.984375 -8.765625 L 10.546875 -8.765625 C 10.472656 -9.921875 10.191406 -10.785156 9.703125 -11.359375 C 9.222656 -11.941406 8.570312 -12.234375 7.75 -12.234375 Z M 7.75 -12.234375 "/></g></g></g><g fill="#f43959" fill-opacity="1"><g transform="translate(158.827461, 368.262456)"><g/></g></g><g fill="#f43959" fill-opacity="1"><g transform="translate(166.355099, 368.262456)"><g><path d="M 17.375 0 L 13.4375 0 L 11.171875 -8.734375 C 11.054688 -9.128906 10.847656 -10.109375 10.546875 -11.671875 L 9.859375 -8.703125 L 7.546875 0 L 3.625 0 L -0.078125 -14.3125 L 3.40625 -14.3125 L 5.765625 -3.375 L 5.953125 -4.359375 L 6.28125 -5.90625 L 8.53125 -14.3125 L 12.515625 -14.3125 L 14.71875 -5.90625 C 14.832031 -5.445312 15.007812 -4.601562 15.25 -3.375 L 15.625 -5.125 L 17.6875 -14.3125 L 21.125 -14.3125 Z M 17.375 0 "/></g></g></g><g fill="#f43959" fill-opacity="1"><g transform="translate(187.429828, 368.262456)"><g><path d="M 1.890625 -16.890625 L 1.890625 -19.625 L 5.609375 -19.625 L 5.609375 -16.890625 Z M 1.890625 0 L 1.890625 -14.3125 L 5.609375 -14.3125 L 5.609375 0 Z M 1.890625 0 "/></g></g></g><g fill="#f43959" fill-opacity="1"><g transform="translate(194.957466, 368.262456)"><g><path d="M 5.5625 0.234375 C 4.46875 0.234375 3.625 -0.0625 3.03125 -0.65625 C 2.4375 -1.25 2.140625 -2.148438 2.140625 -3.359375 L 2.140625 -11.796875 L 0.328125 -11.796875 L 0.328125 -14.3125 L 2.328125 -14.3125 L 3.5 -17.671875 L 5.828125 -17.671875 L 5.828125 -14.3125 L 8.53125 -14.3125 L 8.53125 -11.796875 L 5.828125 -11.796875 L 5.828125 -4.359375 C 5.828125 -3.671875 5.957031 -3.160156 6.21875 -2.828125 C 6.476562 -2.492188 6.890625 -2.328125 7.453125 -2.328125 C 7.742188 -2.328125 8.15625 -2.390625 8.6875 -2.515625 L 8.6875 -0.21875 C 7.769531 0.0820312 6.726562 0.234375 5.5625 0.234375 Z M 5.5625 0.234375 "/></g></g></g><g fill="#f43959" fill-opacity="1"><g transform="translate(203.98004, 368.262456)"><g><path d="M 5.5625 -11.453125 C 6.0625 -12.546875 6.6875 -13.335938 7.4375 -13.828125 C 8.195312 -14.328125 9.101562 -14.578125 10.15625 -14.578125 C 11.675781 -14.578125 12.84375 -14.109375 13.65625 -13.171875 C 14.46875 -12.242188 14.875 -10.878906 14.875 -9.078125 L 14.875 0 L 11.171875 0 L 11.171875 -8.015625 C 11.171875 -10.523438 10.316406 -11.78125 8.609375 -11.78125 C 7.710938 -11.78125 6.988281 -11.394531 6.4375 -10.625 C 5.882812 -9.851562 5.609375 -8.863281 5.609375 -7.65625 L 5.609375 0 L 1.890625 0 L 1.890625 -19.625 L 5.609375 -19.625 L 5.609375 -14.28125 C 5.609375 -13.3125 5.570312 -12.367188 5.5 -11.453125 Z M 5.5625 -11.453125 "/></g></g></g><g fill="#f43959" fill-opacity="1"><g transform="translate(220.530253, 368.262456)"><g/></g></g><g fill="#f43959" fill-opacity="1"><g transform="translate(228.057891, 368.262456)"><g><path d="M 7.75 0.265625 C 5.601562 0.265625 3.953125 -0.367188 2.796875 -1.640625 C 1.640625 -2.921875 1.0625 -4.78125 1.0625 -7.21875 C 1.0625 -9.582031 1.644531 -11.398438 2.8125 -12.671875 C 3.988281 -13.941406 5.65625 -14.578125 7.8125 -14.578125 C 9.863281 -14.578125 11.429688 -13.894531 12.515625 -12.53125 C 13.597656 -11.164062 14.140625 -9.171875 14.140625 -6.546875 L 14.140625 -6.4375 L 4.96875 -6.4375 C 4.96875 -5.050781 5.222656 -4 5.734375 -3.28125 C 6.253906 -2.570312 6.988281 -2.21875 7.9375 -2.21875 C 9.25 -2.21875 10.078125 -2.785156 10.421875 -3.921875 L 13.9375 -3.625 C 12.914062 -1.03125 10.851562 0.265625 7.75 0.265625 Z M 7.75 -12.234375 C 6.875 -12.234375 6.203125 -11.925781 5.734375 -11.3125 C 5.265625 -10.707031 5.015625 -9.859375 4.984375 -8.765625 L 10.546875 -8.765625 C 10.472656 -9.921875 10.191406 -10.785156 9.703125 -11.359375 C 9.222656 -11.941406 8.570312 -12.234375 7.75 -12.234375 Z M 7.75 -12.234375 "/></g></g></g><g fill="#f43959" fill-opacity="1"><g transform="translate(243.12639, 368.262456)"><g><path d="M 5.203125 0.265625 C 3.816406 0.265625 2.734375 -0.109375 1.953125 -0.859375 C 1.179688 -1.617188 0.796875 -2.679688 0.796875 -4.046875 C 0.796875 -5.523438 1.273438 -6.648438 2.234375 -7.421875 C 3.203125 -8.203125 4.601562 -8.601562 6.4375 -8.625 L 9.53125 -8.671875 L 9.53125 -9.40625 C 9.53125 -10.34375 9.363281 -11.035156 9.03125 -11.484375 C 8.707031 -11.941406 8.175781 -12.171875 7.4375 -12.171875 C 6.75 -12.171875 6.242188 -12.015625 5.921875 -11.703125 C 5.597656 -11.390625 5.394531 -10.867188 5.3125 -10.140625 L 1.4375 -10.328125 C 1.675781 -11.722656 2.3125 -12.78125 3.34375 -13.5 C 4.382812 -14.21875 5.800781 -14.578125 7.59375 -14.578125 C 9.40625 -14.578125 10.800781 -14.128906 11.78125 -13.234375 C 12.757812 -12.347656 13.25 -11.085938 13.25 -9.453125 L 13.25 -4.234375 C 13.25 -3.429688 13.335938 -2.875 13.515625 -2.5625 C 13.691406 -2.257812 13.992188 -2.109375 14.421875 -2.109375 C 14.703125 -2.109375 14.972656 -2.140625 15.234375 -2.203125 L 15.234375 -0.1875 C 15.015625 -0.132812 14.816406 -0.0820312 14.640625 -0.03125 C 14.460938 0.0078125 14.285156 0.0390625 14.109375 0.0625 C 13.929688 0.09375 13.742188 0.113281 13.546875 0.125 C 13.347656 0.144531 13.117188 0.15625 12.859375 0.15625 C 11.921875 0.15625 11.226562 -0.0703125 10.78125 -0.53125 C 10.34375 -0.988281 10.078125 -1.660156 9.984375 -2.546875 L 9.90625 -2.546875 C 8.863281 -0.671875 7.296875 0.265625 5.203125 0.265625 Z M 9.53125 -6.625 L 7.625 -6.59375 C 6.757812 -6.5625 6.144531 -6.46875 5.78125 -6.3125 C 5.414062 -6.15625 5.140625 -5.921875 4.953125 -5.609375 C 4.765625 -5.296875 4.671875 -4.875 4.671875 -4.34375 C 4.671875 -3.664062 4.828125 -3.160156 5.140625 -2.828125 C 5.453125 -2.492188 5.867188 -2.328125 6.390625 -2.328125 C 6.972656 -2.328125 7.503906 -2.484375 7.984375 -2.796875 C 8.460938 -3.117188 8.835938 -3.5625 9.109375 -4.125 C 9.390625 -4.6875 9.53125 -5.28125 9.53125 -5.90625 Z M 9.53125 -6.625 "/></g></g></g><g fill="#f43959" fill-opacity="1"><g transform="translate(258.194889, 368.262456)"><g><path d="M 13.953125 -4.1875 C 13.953125 -2.800781 13.382812 -1.710938 12.25 -0.921875 C 11.125 -0.128906 9.554688 0.265625 7.546875 0.265625 C 5.585938 0.265625 4.082031 -0.0390625 3.03125 -0.65625 C 1.988281 -1.28125 1.296875 -2.253906 0.953125 -3.578125 L 4.21875 -4.0625 C 4.40625 -3.382812 4.722656 -2.90625 5.171875 -2.625 C 5.628906 -2.34375 6.421875 -2.203125 7.546875 -2.203125 C 8.585938 -2.203125 9.347656 -2.332031 9.828125 -2.59375 C 10.304688 -2.851562 10.546875 -3.269531 10.546875 -3.84375 C 10.546875 -4.300781 10.351562 -4.660156 9.96875 -4.921875 C 9.582031 -5.191406 8.929688 -5.421875 8.015625 -5.609375 C 5.921875 -6.023438 4.503906 -6.410156 3.765625 -6.765625 C 3.035156 -7.117188 2.476562 -7.582031 2.09375 -8.15625 C 1.707031 -8.726562 1.515625 -9.425781 1.515625 -10.25 C 1.515625 -11.613281 2.039062 -12.675781 3.09375 -13.4375 C 4.15625 -14.207031 5.648438 -14.59375 7.578125 -14.59375 C 9.285156 -14.59375 10.65625 -14.257812 11.6875 -13.59375 C 12.726562 -12.9375 13.375 -11.984375 13.625 -10.734375 L 10.328125 -10.390625 C 10.222656 -10.972656 9.960938 -11.40625 9.546875 -11.6875 C 9.140625 -11.976562 8.484375 -12.125 7.578125 -12.125 C 6.691406 -12.125 6.03125 -12.007812 5.59375 -11.78125 C 5.15625 -11.550781 4.9375 -11.175781 4.9375 -10.65625 C 4.9375 -10.238281 5.101562 -9.90625 5.4375 -9.65625 C 5.78125 -9.414062 6.351562 -9.21875 7.15625 -9.0625 C 8.28125 -8.832031 9.273438 -8.59375 10.140625 -8.34375 C 11.003906 -8.101562 11.695312 -7.816406 12.21875 -7.484375 C 12.75 -7.148438 13.171875 -6.71875 13.484375 -6.1875 C 13.796875 -5.664062 13.953125 -5 13.953125 -4.1875 Z M 13.953125 -4.1875 "/></g></g></g><g fill="#f43959" fill-opacity="1"><g transform="translate(273.263389, 368.262456)"><g><path d="M 7.75 0.265625 C 5.601562 0.265625 3.953125 -0.367188 2.796875 -1.640625 C 1.640625 -2.921875 1.0625 -4.78125 1.0625 -7.21875 C 1.0625 -9.582031 1.644531 -11.398438 2.8125 -12.671875 C 3.988281 -13.941406 5.65625 -14.578125 7.8125 -14.578125 C 9.863281 -14.578125 11.429688 -13.894531 12.515625 -12.53125 C 13.597656 -11.164062 14.140625 -9.171875 14.140625 -6.546875 L 14.140625 -6.4375 L 4.96875 -6.4375 C 4.96875 -5.050781 5.222656 -4 5.734375 -3.28125 C 6.253906 -2.570312 6.988281 -2.21875 7.9375 -2.21875 C 9.25 -2.21875 10.078125 -2.785156 10.421875 -3.921875 L 13.9375 -3.625 C 12.914062 -1.03125 10.851562 0.265625 7.75 0.265625 Z M 7.75 -12.234375 C 6.875 -12.234375 6.203125 -11.925781 5.734375 -11.3125 C 5.265625 -10.707031 5.015625 -9.859375 4.984375 -8.765625 L 10.546875 -8.765625 C 10.472656 -9.921875 10.191406 -10.785156 9.703125 -11.359375 C 9.222656 -11.941406 8.570312 -12.234375 7.75 -12.234375 Z M 7.75 -12.234375 "/></g></g></g><g clip-path="url(#2f9b204dc9)"><path fill="#382099" d="M 250.464844 98.320312 C 250.464844 98.320312 246.363281 99.957031 239.65625 103.53125 C 181.902344 134.300781 145.953125 194.550781 145.953125 259.992188 L 145.953125 289.144531 L 250.464844 289.144531 L 250.464844 202.832031 L 336.777344 202.832031 L 336.777344 98.320312 L 250.464844 98.320312 " fill-opacity="1" fill-rule="nonzero"/></g><g clip-path="url(#367440324d)"><path fill="#ffffff" d="M 145.953125 12.007812 L 145.953125 98.320312 L 59.636719 98.320312 L 59.636719 202.832031 C 89.097656 202.832031 117.054688 189.523438 135.382812 166.460938 C 158.914062 136.847656 195.144531 111.441406 250.464844 98.320312 L 250.464844 12.007812 L 145.953125 12.007812 " fill-opacity="1" fill-rule="nonzero"/></g><g clip-path="url(#c163ab614a)"><path fill="#382099" d="M 147.074219 77.414062 L 147.074219 -0.00390625 L 250.078125 -0.00390625 L 250.078125 77.414062 Z M 147.074219 77.414062 " fill-opacity="1" fill-rule="nonzero"/></g><g clip-path="url(#7b68f479f4)"><path fill="#ffffff" d="M 254.652344 156.976562 L 254.652344 98.355469 L 285.394531 98.355469 L 285.394531 156.976562 Z M 254.652344 156.976562 " fill-opacity="1" fill-rule="nonzero"/></g><path fill="#f43959" d="M 102.167969 150.3125 C 88.808594 150.3125 77.96875 139.484375 77.96875 126.144531 C 77.96875 112.789062 88.808594 101.964844 102.167969 101.964844 C 115.542969 101.964844 126.371094 112.789062 126.371094 126.144531 C 126.371094 139.484375 115.542969 150.3125 102.167969 150.3125 Z M 102.167969 150.3125 " fill-opacity="1" fill-rule="nonzero"/><g clip-path="url(#0f208aa614)"><path fill="#f43959" d="M 100.488281 39.9375 C 104.699219 39.785156 108.953125 39.925781 113.179688 40.386719 C 54.816406 53.519531 55.792969 112.914062 63.90625 135.335938 C 63.949219 135.460938 64.007812 135.601562 64.046875 135.726562 C 67.585938 145.367188 73.40625 155.789062 82.484375 161.25 C 94.710938 168.585938 110.730469 164.449219 121.628906 156.625 C 149.871094 136.355469 158.980469 93.105469 198.917969 88.773438 C 213.160156 87.238281 223.707031 93.59375 223.707031 93.59375 C 223.707031 93.59375 185.519531 107.703125 157.777344 167.285156 C 137.210938 211.472656 141.519531 261.441406 146.722656 289.980469 C 119.023438 275.242188 91.046875 259.207031 69.125 236.6875 C 46.464844 213.414062 29.269531 183.574219 23.800781 151.34375 C 15.113281 100.203125 43.59375 42.019531 100.488281 39.9375 Z M 100.488281 39.9375 " fill-opacity="1" fill-rule="nonzero"/></g><path fill="#ffffff" d="M 199.953125 234.816406 C 208.824219 230.484375 216.015625 225.484375 226.242188 215.929688 C 213.582031 239.089844 187.351562 256.453125 157.777344 265.589844 C 157.777344 256.71875 159.804688 252.390625 168.015625 247.710938 C 177.992188 242.011719 189.65625 239.859375 199.953125 234.816406 Z M 199.953125 234.816406 " fill-opacity="1" fill-rule="nonzero"/><path fill="#ffffff" d="M 220.464844 208.945312 C 207.886719 224.519531 188.34375 232.175781 166.730469 237.722656 C 166.730469 225.75 179.222656 221.65625 186.917969 220.734375 C 203.914062 218.695312 220.464844 208.945312 220.464844 208.945312 Z M 220.464844 208.945312 " fill-opacity="1" fill-rule="nonzero"/><g clip-path="url(#77a0f25370)"><path fill="#ffffff" d="M 201.199219 252 C 217.46875 240.738281 228.03125 230.457031 233.164062 211.375 C 234.832031 205.199219 235.363281 197.710938 230.71875 193.296875 C 226.785156 189.554688 220.5625 189.582031 215.273438 190.851562 C 209.984375 192.125 204.851562 194.414062 199.410156 194.457031 C 193.96875 194.484375 185.894531 192.082031 185.25 186.675781 C 197.742188 173.011719 214.769531 163.554688 232.984375 160.160156 C 237.460938 159.324219 241.8125 158.527344 245.980469 157.367188 C 252.5 155.578125 258.542969 152.910156 263.871094 147.855469 C 271.203125 140.910156 275.820312 131.648438 278.6875 122.09375 C 282.351562 109.898438 283.359375 96.738281 281.804688 83.984375 C 292.074219 104.058594 295.640625 128.40625 291.753906 151.347656 C 286.28125 183.574219 269.089844 213.414062 246.425781 236.6875 C 221.582031 262.210938 188.945312 279.40625 157.777344 295.835938 C 153.117188 270.339844 174.660156 270.339844 201.199219 252 Z M 201.199219 252 " fill-opacity="1" fill-rule="nonzero"/></g><g clip-path="url(#caf084fe30)"><path fill="#ffffff" d="M 71.355469 73.21875 C 79.894531 57.65625 94.171875 47.527344 113.792969 43.109375 L 120.679688 41.5625 C 134.941406 44.449219 148.3125 51.164062 157.777344 62.554688 C 171.652344 45.859375 193.910156 39.167969 215.0625 39.9375 C 243.660156 40.980469 265.074219 56.195312 278.207031 77.570312 L 279.027344 84.320312 C 280.554688 96.851562 279.511719 109.636719 276.007812 121.289062 C 272.886719 131.691406 268.15625 139.945312 261.945312 145.828125 C 257.964844 149.601562 253.320312 152.195312 247.09375 154.117188 C 248.777344 149.09375 250.179688 143.988281 251.101562 138.757812 C 253.785156 123.742188 252.429688 107.496094 244.386719 94.515625 C 235.5 80.171875 218.53125 71.214844 201.648438 71.96875 C 184.777344 72.722656 165.34375 82.894531 157.777344 97.96875 C 150.207031 82.894531 130.777344 72.722656 113.90625 71.96875 C 97.019531 71.214844 80.050781 80.171875 71.167969 94.515625 C 66.386719 102.226562 63.976562 111.089844 63.363281 120.160156 C 61.714844 106.511719 62.914062 88.601562 71.355469 73.21875 Z M 71.355469 73.21875 " fill-opacity="1" fill-rule="nonzero"/></g><g clip-path="url(#8d3b9af13c)"><path fill="#ffffff" d="M 174.609375 82.84375 L 174.609375 55.410156 L 243.78125 55.410156 L 243.78125 82.84375 Z M 174.609375 82.84375 " fill-opacity="1" fill-rule="nonzero"/></g></svg>