<svg xmlns="http://www.w3.org/2000/svg" xmlns:xlink="http://www.w3.org/1999/xlink" width="500" zoomAndPan="magnify" viewBox="0 0 375 374.999991" height="500" preserveAspectRatio="xMidYMid meet" version="1.0"><defs><g/><clipPath id="2916311a69"><path d="M 56 173 L 110.390625 173 L 110.390625 227.433594 L 56 227.433594 Z M 56 173 " clip-rule="nonzero"/></clipPath><clipPath id="41744d57f3"><path d="M 31.867188 148.910156 L 86 148.910156 L 86 203 L 31.867188 203 Z M 31.867188 148.910156 " clip-rule="nonzero"/></clipPath><clipPath id="b0072cc772"><path d="M 56.636719 145.503906 L 85.820312 145.503906 L 85.820312 167.4375 L 56.636719 167.4375 Z M 56.636719 145.503906 " clip-rule="nonzero"/></clipPath><clipPath id="718c111637"><path d="M 87.117188 173.371094 L 95.828125 173.371094 L 95.828125 189.980469 L 87.117188 189.980469 Z M 87.117188 173.371094 " clip-rule="nonzero"/></clipPath><clipPath id="e74f7ab6ee"><path d="M 21 156.601562 L 79 156.601562 L 79 228 L 21 228 Z M 21 156.601562 " clip-rule="nonzero"/></clipPath><clipPath id="b0cf3e4e41"><path d="M 59 169 L 98.675781 169 L 98.675781 229.34375 L 59 229.34375 Z M 59 169 " clip-rule="nonzero"/></clipPath><clipPath id="54d3c2f947"><path d="M 32 156.601562 L 95 156.601562 L 95 190 L 32 190 Z M 32 156.601562 " clip-rule="nonzero"/></clipPath><clipPath id="da51e72a71"><path d="M 64.4375 161.207031 L 84.035156 161.207031 L 84.035156 168.976562 L 64.4375 168.976562 Z M 64.4375 161.207031 " clip-rule="nonzero"/></clipPath></defs><g fill="#000000" fill-opacity="1"><g transform="translate(125.663011, 195.939023)"><g><path d="M 11.203125 -15.46875 C 10.796875 -15.695312 10.425781 -15.894531 10.09375 -16.0625 C 9.769531 -16.238281 9.46875 -16.382812 9.1875 -16.5 C 8.90625 -16.625 8.640625 -16.710938 8.390625 -16.765625 C 8.140625 -16.828125 7.894531 -16.859375 7.65625 -16.859375 C 7.332031 -16.859375 7.015625 -16.816406 6.703125 -16.734375 C 6.398438 -16.660156 6.128906 -16.539062 5.890625 -16.375 C 5.648438 -16.21875 5.457031 -16.003906 5.3125 -15.734375 C 5.175781 -15.472656 5.109375 -15.148438 5.109375 -14.765625 C 5.109375 -14.410156 5.191406 -14.09375 5.359375 -13.8125 C 5.523438 -13.539062 5.742188 -13.296875 6.015625 -13.078125 C 6.296875 -12.859375 6.613281 -12.660156 6.96875 -12.484375 C 7.320312 -12.304688 7.691406 -12.128906 8.078125 -11.953125 C 8.515625 -11.753906 8.957031 -11.546875 9.40625 -11.328125 C 9.863281 -11.117188 10.300781 -10.882812 10.71875 -10.625 C 11.144531 -10.363281 11.539062 -10.078125 11.90625 -9.765625 C 12.269531 -9.460938 12.585938 -9.117188 12.859375 -8.734375 C 13.140625 -8.347656 13.359375 -7.921875 13.515625 -7.453125 C 13.671875 -6.984375 13.75 -6.457031 13.75 -5.875 C 13.75 -4.863281 13.539062 -3.976562 13.125 -3.21875 C 12.707031 -2.457031 12.148438 -1.820312 11.453125 -1.3125 C 10.753906 -0.800781 9.953125 -0.414062 9.046875 -0.15625 C 8.140625 0.09375 7.207031 0.21875 6.25 0.21875 C 5.144531 0.21875 4.125 0.0664062 3.1875 -0.234375 C 2.257812 -0.546875 1.328125 -1 0.390625 -1.59375 L 2.203125 -4.5625 C 2.441406 -4.40625 2.722656 -4.234375 3.046875 -4.046875 C 3.367188 -3.859375 3.710938 -3.6875 4.078125 -3.53125 C 4.441406 -3.375 4.804688 -3.238281 5.171875 -3.125 C 5.535156 -3.019531 5.882812 -2.96875 6.21875 -2.96875 C 6.601562 -2.96875 6.984375 -3.015625 7.359375 -3.109375 C 7.734375 -3.203125 8.066406 -3.351562 8.359375 -3.5625 C 8.660156 -3.78125 8.898438 -4.054688 9.078125 -4.390625 C 9.253906 -4.734375 9.34375 -5.148438 9.34375 -5.640625 C 9.34375 -6.117188 9.234375 -6.535156 9.015625 -6.890625 C 8.804688 -7.242188 8.53125 -7.554688 8.1875 -7.828125 C 7.84375 -8.109375 7.453125 -8.359375 7.015625 -8.578125 C 6.578125 -8.796875 6.132812 -9.015625 5.6875 -9.234375 C 5.050781 -9.523438 4.425781 -9.828125 3.8125 -10.140625 C 3.207031 -10.460938 2.660156 -10.828125 2.171875 -11.234375 C 1.691406 -11.640625 1.300781 -12.097656 1 -12.609375 C 0.707031 -13.117188 0.5625 -13.710938 0.5625 -14.390625 C 0.5625 -15.273438 0.753906 -16.0625 1.140625 -16.75 C 1.535156 -17.4375 2.050781 -18.015625 2.6875 -18.484375 C 3.332031 -18.953125 4.054688 -19.304688 4.859375 -19.546875 C 5.671875 -19.785156 6.5 -19.90625 7.34375 -19.90625 C 8.363281 -19.90625 9.34375 -19.742188 10.28125 -19.421875 C 11.226562 -19.097656 12.191406 -18.613281 13.171875 -17.96875 Z M 11.203125 -15.46875 "/></g></g></g><g fill="#000000" fill-opacity="1"><g transform="translate(147.715106, 195.939023)"><g><path d="M 14.25 -3 L 13.90625 0 L 1.34375 0 L 1.5625 -3.03125 L 1.5625 -16.578125 L 1.109375 -19.6875 L 13.765625 -19.6875 L 13.765625 -16.6875 L 5.96875 -16.6875 L 6.171875 -14.890625 L 6.171875 -12.015625 L 12.90625 -12.015625 L 12.90625 -9.234375 L 6.171875 -9.234375 L 6.171875 -4.71875 L 6.0625 -3 Z M 14.25 -3 "/></g></g></g><g fill="#000000" fill-opacity="1"><g transform="translate(171.079762, 195.939023)"><g><path d="M 6.84375 -7.40625 C 6.738281 -7.53125 6.625 -7.601562 6.5 -7.625 C 6.382812 -7.644531 6.289062 -7.65625 6.21875 -7.65625 L 6.21875 0 L 1.59375 0 L 1.59375 -16.5625 L 1.109375 -19.453125 C 1.492188 -19.492188 1.9375 -19.535156 2.4375 -19.578125 C 2.9375 -19.628906 3.441406 -19.671875 3.953125 -19.703125 C 4.472656 -19.742188 4.976562 -19.773438 5.46875 -19.796875 C 5.96875 -19.816406 6.410156 -19.828125 6.796875 -19.828125 C 7.992188 -19.828125 9.082031 -19.707031 10.0625 -19.46875 C 11.050781 -19.226562 11.894531 -18.867188 12.59375 -18.390625 C 13.300781 -17.910156 13.847656 -17.316406 14.234375 -16.609375 C 14.628906 -15.910156 14.828125 -15.101562 14.828125 -14.1875 C 14.828125 -13.238281 14.679688 -12.425781 14.390625 -11.75 C 14.097656 -11.070312 13.703125 -10.492188 13.203125 -10.015625 C 12.703125 -9.546875 12.125 -9.15625 11.46875 -8.84375 C 10.820312 -8.539062 10.144531 -8.289062 9.4375 -8.09375 L 11.28125 -7.671875 L 17 0 L 12.171875 0 Z M 6.21875 -14.828125 L 6.21875 -10.53125 L 7.0625 -10.53125 C 7.644531 -10.53125 8.148438 -10.625 8.578125 -10.8125 C 9.015625 -11 9.375 -11.25 9.65625 -11.5625 C 9.945312 -11.875 10.160156 -12.238281 10.296875 -12.65625 C 10.441406 -13.082031 10.515625 -13.523438 10.515625 -13.984375 C 10.515625 -14.597656 10.410156 -15.109375 10.203125 -15.515625 C 9.992188 -15.921875 9.726562 -16.242188 9.40625 -16.484375 C 9.082031 -16.722656 8.71875 -16.890625 8.3125 -16.984375 C 7.90625 -17.078125 7.503906 -17.125 7.109375 -17.125 L 6.421875 -17.125 C 6.347656 -17.125 6.273438 -17.117188 6.203125 -17.109375 C 6.140625 -17.109375 6.070312 -17.109375 6 -17.109375 Z M 6.21875 -14.828125 "/></g></g></g><g fill="#000000" fill-opacity="1"><g transform="translate(195.756977, 195.939023)"><g><path d="M 16.9375 -19.6875 L 11.546875 -2.671875 L 11.171875 0.328125 L 6.046875 -0.0625 L -0.203125 -19.578125 L 4.015625 -20.03125 L 7.34375 -9.1875 L 8.578125 -3.40625 L 9.46875 -9.1875 L 12.734375 -19.6875 Z M 16.9375 -19.6875 "/></g></g></g><g fill="#000000" fill-opacity="1"><g transform="translate(220.434198, 195.939023)"><g><path d="M 14.25 -3 L 13.90625 0 L 1.34375 0 L 1.5625 -3.03125 L 1.5625 -16.578125 L 1.109375 -19.6875 L 13.765625 -19.6875 L 13.765625 -16.6875 L 5.96875 -16.6875 L 6.171875 -14.890625 L 6.171875 -12.015625 L 12.90625 -12.015625 L 12.90625 -9.234375 L 6.171875 -9.234375 L 6.171875 -4.71875 L 6.0625 -3 Z M 14.25 -3 "/></g></g></g><g fill="#000000" fill-opacity="1"><g transform="translate(243.798857, 195.939023)"><g><path d="M 1.625 -8.1875 L 9.859375 -8.1875 L 9.859375 -5.25 L 1.625 -5.25 Z M 1.625 -8.1875 "/></g></g></g><g fill="#000000" fill-opacity="1"><g transform="translate(263.225832, 195.939023)"><g><path d="M 14.25 -3 L 13.90625 0 L 1.34375 0 L 1.5625 -3.03125 L 1.5625 -16.578125 L 1.109375 -19.6875 L 13.765625 -19.6875 L 13.765625 -16.6875 L 5.96875 -16.6875 L 6.171875 -14.890625 L 6.171875 -12.015625 L 12.90625 -12.015625 L 12.90625 -9.234375 L 6.171875 -9.234375 L 6.171875 -4.71875 L 6.0625 -3 Z M 14.25 -3 "/></g></g></g><g fill="#000000" fill-opacity="1"><g transform="translate(286.590491, 195.939023)"><g><path d="M 0.078125 0 L 5.296875 -16.859375 L 5.765625 -19.609375 L 10.71875 -20.015625 L 17.015625 0 L 12.515625 0 L 11 -5.609375 L 5.859375 -5.609375 L 4.375 0 Z M 8.421875 -17.859375 L 7.734375 -13 L 6.625 -8.484375 L 10.21875 -8.484375 L 9.109375 -13 Z M 8.421875 -17.859375 "/></g></g></g><g fill="#000000" fill-opacity="1"><g transform="translate(311.267711, 195.939023)"><g><path d="M 11.203125 -15.46875 C 10.796875 -15.695312 10.425781 -15.894531 10.09375 -16.0625 C 9.769531 -16.238281 9.46875 -16.382812 9.1875 -16.5 C 8.90625 -16.625 8.640625 -16.710938 8.390625 -16.765625 C 8.140625 -16.828125 7.894531 -16.859375 7.65625 -16.859375 C 7.332031 -16.859375 7.015625 -16.816406 6.703125 -16.734375 C 6.398438 -16.660156 6.128906 -16.539062 5.890625 -16.375 C 5.648438 -16.21875 5.457031 -16.003906 5.3125 -15.734375 C 5.175781 -15.472656 5.109375 -15.148438 5.109375 -14.765625 C 5.109375 -14.410156 5.191406 -14.09375 5.359375 -13.8125 C 5.523438 -13.539062 5.742188 -13.296875 6.015625 -13.078125 C 6.296875 -12.859375 6.613281 -12.660156 6.96875 -12.484375 C 7.320312 -12.304688 7.691406 -12.128906 8.078125 -11.953125 C 8.515625 -11.753906 8.957031 -11.546875 9.40625 -11.328125 C 9.863281 -11.117188 10.300781 -10.882812 10.71875 -10.625 C 11.144531 -10.363281 11.539062 -10.078125 11.90625 -9.765625 C 12.269531 -9.460938 12.585938 -9.117188 12.859375 -8.734375 C 13.140625 -8.347656 13.359375 -7.921875 13.515625 -7.453125 C 13.671875 -6.984375 13.75 -6.457031 13.75 -5.875 C 13.75 -4.863281 13.539062 -3.976562 13.125 -3.21875 C 12.707031 -2.457031 12.148438 -1.820312 11.453125 -1.3125 C 10.753906 -0.800781 9.953125 -0.414062 9.046875 -0.15625 C 8.140625 0.09375 7.207031 0.21875 6.25 0.21875 C 5.144531 0.21875 4.125 0.0664062 3.1875 -0.234375 C 2.257812 -0.546875 1.328125 -1 0.390625 -1.59375 L 2.203125 -4.5625 C 2.441406 -4.40625 2.722656 -4.234375 3.046875 -4.046875 C 3.367188 -3.859375 3.710938 -3.6875 4.078125 -3.53125 C 4.441406 -3.375 4.804688 -3.238281 5.171875 -3.125 C 5.535156 -3.019531 5.882812 -2.96875 6.21875 -2.96875 C 6.601562 -2.96875 6.984375 -3.015625 7.359375 -3.109375 C 7.734375 -3.203125 8.066406 -3.351562 8.359375 -3.5625 C 8.660156 -3.78125 8.898438 -4.054688 9.078125 -4.390625 C 9.253906 -4.734375 9.34375 -5.148438 9.34375 -5.640625 C 9.34375 -6.117188 9.234375 -6.535156 9.015625 -6.890625 C 8.804688 -7.242188 8.53125 -7.554688 8.1875 -7.828125 C 7.84375 -8.109375 7.453125 -8.359375 7.015625 -8.578125 C 6.578125 -8.796875 6.132812 -9.015625 5.6875 -9.234375 C 5.050781 -9.523438 4.425781 -9.828125 3.8125 -10.140625 C 3.207031 -10.460938 2.660156 -10.828125 2.171875 -11.234375 C 1.691406 -11.640625 1.300781 -12.097656 1 -12.609375 C 0.707031 -13.117188 0.5625 -13.710938 0.5625 -14.390625 C 0.5625 -15.273438 0.753906 -16.0625 1.140625 -16.75 C 1.535156 -17.4375 2.050781 -18.015625 2.6875 -18.484375 C 3.332031 -18.953125 4.054688 -19.304688 4.859375 -19.546875 C 5.671875 -19.785156 6.5 -19.90625 7.34375 -19.90625 C 8.363281 -19.90625 9.34375 -19.742188 10.28125 -19.421875 C 11.226562 -19.097656 12.191406 -18.613281 13.171875 -17.96875 Z M 11.203125 -15.46875 "/></g></g></g><g fill="#000000" fill-opacity="1"><g transform="translate(333.319799, 195.939023)"><g><path d="M 14.25 -3 L 13.90625 0 L 1.34375 0 L 1.5625 -3.03125 L 1.5625 -16.578125 L 1.109375 -19.6875 L 13.765625 -19.6875 L 13.765625 -16.6875 L 5.96875 -16.6875 L 6.171875 -14.890625 L 6.171875 -12.015625 L 12.90625 -12.015625 L 12.90625 -9.234375 L 6.171875 -9.234375 L 6.171875 -4.71875 L 6.0625 -3 Z M 14.25 -3 "/></g></g></g><g clip-path="url(#2916311a69)"><path fill="#382099" d="M 85.929688 173.363281 C 85.929688 173.363281 84.769531 173.828125 82.867188 174.839844 C 66.503906 183.554688 56.320312 200.625 56.320312 219.167969 L 56.320312 227.425781 L 85.929688 227.425781 L 85.929688 202.972656 L 110.382812 202.972656 L 110.382812 173.363281 L 85.929688 173.363281 " fill-opacity="1" fill-rule="nonzero"/></g><g clip-path="url(#41744d57f3)"><path fill="#ffffff" d="M 56.320312 148.90625 L 56.320312 173.363281 L 31.863281 173.363281 L 31.863281 202.972656 C 40.210938 202.972656 48.132812 199.203125 53.324219 192.667969 C 59.992188 184.277344 70.257812 177.078125 85.929688 173.363281 L 85.929688 148.90625 L 56.320312 148.90625 " fill-opacity="1" fill-rule="nonzero"/></g><g clip-path="url(#b0072cc772)"><path fill="#382099" d="M 56.636719 167.4375 L 56.636719 145.503906 L 85.820312 145.503906 L 85.820312 167.4375 Z M 56.636719 167.4375 " fill-opacity="1" fill-rule="nonzero"/></g><g clip-path="url(#718c111637)"><path fill="#ffffff" d="M 87.117188 189.980469 L 87.117188 173.371094 L 95.828125 173.371094 L 95.828125 189.980469 Z M 87.117188 189.980469 " fill-opacity="1" fill-rule="nonzero"/></g><path fill="#f43959" d="M 43.914062 188.09375 C 40.128906 188.09375 37.058594 185.023438 37.058594 181.246094 C 37.058594 177.460938 40.128906 174.394531 43.914062 174.394531 C 47.703125 174.394531 50.773438 177.460938 50.773438 181.246094 C 50.773438 185.023438 47.703125 188.09375 43.914062 188.09375 Z M 43.914062 188.09375 " fill-opacity="1" fill-rule="nonzero"/><g clip-path="url(#e74f7ab6ee)"><path fill="#f43959" d="M 43.4375 156.820312 C 44.632812 156.777344 45.835938 156.816406 47.035156 156.949219 C 30.5 160.667969 30.777344 177.496094 33.074219 183.851562 C 33.085938 183.886719 33.101562 183.925781 33.113281 183.960938 C 34.117188 186.691406 35.765625 189.644531 38.339844 191.191406 C 41.800781 193.269531 46.339844 192.097656 49.429688 189.882812 C 57.429688 184.140625 60.011719 171.886719 71.328125 170.65625 C 75.363281 170.222656 78.351562 172.023438 78.351562 172.023438 C 78.351562 172.023438 67.53125 176.019531 59.667969 192.902344 C 53.84375 205.421875 55.0625 219.578125 56.539062 227.664062 C 48.691406 223.488281 40.765625 218.945312 34.554688 212.566406 C 28.132812 205.96875 23.261719 197.515625 21.710938 188.386719 C 19.25 173.894531 27.320312 157.410156 43.4375 156.820312 Z M 43.4375 156.820312 " fill-opacity="1" fill-rule="nonzero"/></g><path fill="#ffffff" d="M 71.621094 212.035156 C 74.132812 210.808594 76.171875 209.390625 79.066406 206.683594 C 75.480469 213.246094 68.046875 218.164062 59.667969 220.753906 C 59.667969 218.242188 60.246094 217.015625 62.570312 215.6875 C 65.398438 214.074219 68.703125 213.464844 71.621094 212.035156 Z M 71.621094 212.035156 " fill-opacity="1" fill-rule="nonzero"/><path fill="#ffffff" d="M 77.429688 204.703125 C 73.867188 209.117188 68.332031 211.285156 62.207031 212.859375 C 62.207031 209.464844 65.746094 208.304688 67.925781 208.046875 C 72.742188 207.46875 77.429688 204.703125 77.429688 204.703125 Z M 77.429688 204.703125 " fill-opacity="1" fill-rule="nonzero"/><g clip-path="url(#b0cf3e4e41)"><path fill="#ffffff" d="M 71.972656 216.902344 C 76.582031 213.710938 79.574219 210.800781 81.03125 205.394531 C 81.5 203.644531 81.652344 201.523438 80.335938 200.269531 C 79.222656 199.210938 77.457031 199.21875 75.960938 199.578125 C 74.460938 199.9375 73.007812 200.589844 71.464844 200.601562 C 69.921875 200.609375 67.636719 199.925781 67.453125 198.394531 C 70.992188 194.523438 75.816406 191.84375 80.976562 190.882812 C 82.246094 190.644531 83.480469 190.421875 84.660156 190.089844 C 86.507812 189.585938 88.21875 188.828125 89.730469 187.394531 C 91.804688 185.429688 93.113281 182.804688 93.925781 180.097656 C 94.964844 176.640625 95.25 172.914062 94.808594 169.300781 C 97.71875 174.988281 98.730469 181.886719 97.628906 188.386719 C 96.078125 197.515625 91.207031 205.972656 84.785156 212.566406 C 77.746094 219.796875 68.5 224.667969 59.667969 229.324219 C 58.351562 222.101562 64.453125 222.101562 71.972656 216.902344 Z M 71.972656 216.902344 " fill-opacity="1" fill-rule="nonzero"/></g><g clip-path="url(#54d3c2f947)"><path fill="#ffffff" d="M 35.183594 166.25 C 37.605469 161.839844 41.648438 158.972656 47.207031 157.71875 L 49.160156 157.28125 C 53.199219 158.097656 56.988281 160 59.671875 163.230469 C 63.601562 158.5 69.90625 156.601562 75.902344 156.820312 C 84.003906 157.117188 90.070312 161.425781 93.789062 167.484375 L 94.023438 169.394531 C 94.457031 172.945312 94.160156 176.566406 93.167969 179.871094 C 92.28125 182.816406 90.941406 185.15625 89.183594 186.820312 C 88.054688 187.890625 86.738281 188.625 84.976562 189.171875 C 85.453125 187.746094 85.851562 186.300781 86.109375 184.820312 C 86.871094 180.566406 86.488281 175.960938 84.207031 172.285156 C 81.691406 168.21875 76.882812 165.683594 72.097656 165.898438 C 67.320312 166.109375 61.8125 168.992188 59.667969 173.261719 C 57.527344 168.992188 52.019531 166.109375 47.242188 165.898438 C 42.457031 165.683594 37.648438 168.21875 35.132812 172.285156 C 33.777344 174.46875 33.09375 176.980469 32.921875 179.550781 C 32.453125 175.683594 32.792969 170.609375 35.183594 166.25 Z M 35.183594 166.25 " fill-opacity="1" fill-rule="nonzero"/></g><g clip-path="url(#da51e72a71)"><path fill="#ffffff" d="M 64.4375 168.976562 L 64.4375 161.207031 L 84.035156 161.207031 L 84.035156 168.976562 Z M 64.4375 168.976562 " fill-opacity="1" fill-rule="nonzero"/></g></svg>