<svg width="198" height="192" viewBox="0 0 198 192" fill="none" xmlns="http://www.w3.org/2000/svg">
<mask id="mask0_297_252" style="mask-type:luminance" maskUnits="userSpaceOnUse" x="77" y="68" width="118" height="114">
<path d="M77.0879 68.0302H194.304V181.082H77.0879V68.0302Z" fill="white"/>
</mask>
<g mask="url(#mask0_297_252)">
<path d="M141.39 68.2351C141.39 68.2351 138.874 69.204 134.766 71.317C99.3629 89.5117 77.3271 125.137 77.3271 163.835V181.072H141.39V130.034H194.298V68.2351H141.39Z" fill="#382099"/>
</g>
<mask id="mask1_297_252" style="mask-type:luminance" maskUnits="userSpaceOnUse" x="24" y="17" width="118" height="114">
<path d="M24.4258 17.2042H141.504V130.169H24.4258V17.2042Z" fill="white"/>
</mask>
<g mask="url(#mask1_297_252)">
<path d="M77.3273 17.1981V68.2349H24.418V130.033C42.4752 130.033 59.6125 122.165 70.849 108.526C85.272 91.0176 107.481 75.9943 141.391 68.2349V17.1981H77.3273Z" fill="white"/>
</g>
<mask id="mask2_297_252" style="mask-type:luminance" maskUnits="userSpaceOnUse" x="77" y="10" width="64" height="46">
<path d="M77.9277 10.1073H140.962V55.81H77.9277V10.1073Z" fill="white"/>
</mask>
<g mask="url(#mask2_297_252)">
<path d="M77.9277 55.81V10.1073H140.962V55.81H77.9277Z" fill="#382099"/>
</g>
<mask id="mask3_297_252" style="mask-type:luminance" maskUnits="userSpaceOnUse" x="143" y="68" width="20" height="35">
<path d="M143.763 68.1733H162.575V102.78H143.763V68.1733Z" fill="white"/>
</mask>
<g mask="url(#mask3_297_252)">
<path d="M143.763 102.78V68.1733H162.575V102.78H143.763Z" fill="white"/>
</g>
<path d="M50.335 99.0477C42.151 99.0477 35.5098 92.6352 35.5098 84.7346C35.5098 76.826 42.151 70.4136 50.335 70.4136C58.5293 70.4136 65.1623 76.826 65.1623 84.7346C65.1623 92.6352 58.5293 99.0477 50.335 99.0477Z" fill="#F43959"/>
<path d="M49.3079 33.6799C51.886 33.5884 54.493 33.672 57.0814 33.9445C21.328 41.7218 21.9261 76.8996 26.8967 90.1781C26.9235 90.2537 26.9565 90.3353 26.9834 90.4109C29.151 96.119 32.715 102.291 38.2776 105.526C45.7686 109.869 55.5799 107.42 62.2562 102.788C79.5585 90.783 85.1397 65.1671 109.607 62.6025C118.331 61.6933 124.793 65.4575 124.793 65.4575C124.793 65.4575 101.396 73.8138 84.4013 109.099C71.8035 135.268 74.4435 164.863 77.6322 181.765C60.6619 173.036 43.5225 163.538 30.0936 150.202C16.2109 136.418 5.67773 118.747 2.32617 99.6585C-2.99508 69.3711 14.4537 34.9115 49.3079 33.6799Z" fill="#F43959"/>
<path d="M110.24 149.094C115.675 146.529 120.078 143.567 126.344 137.908C118.587 151.626 102.518 161.909 84.4014 167.32C84.4014 162.066 85.6451 159.503 90.6755 156.73C96.7867 153.355 103.933 152.08 110.24 149.094Z" fill="white"/>
<path d="M122.805 133.772C115.1 142.996 103.127 147.53 89.8877 150.815C89.8877 143.724 97.5396 141.3 102.254 140.755C112.666 139.546 122.805 133.772 122.805 133.772Z" fill="white"/>
<mask id="mask4_297_252" style="mask-type:luminance" maskUnits="userSpaceOnUse" x="83" y="59" width="85" height="127">
<path d="M83.9521 59.3715H167.904V185.266H83.9521V59.3715Z" fill="white"/>
</mask>
<g mask="url(#mask4_297_252)">
<path d="M111.004 159.27C120.97 152.601 127.442 146.513 130.587 135.21C131.606 131.554 131.932 127.119 129.086 124.504C126.679 122.288 122.865 122.304 119.625 123.058C116.385 123.81 113.241 125.167 109.906 125.191C106.573 125.209 101.628 123.784 101.234 120.583C108.888 112.491 119.318 106.891 130.476 104.881C133.217 104.384 135.884 103.912 138.437 103.226C142.43 102.167 146.132 100.588 149.397 97.5913C153.887 93.4809 156.717 87.9956 158.472 82.3352C160.718 75.113 161.335 67.3198 160.384 59.7654C166.675 71.6551 168.861 86.0756 166.477 99.6605C163.127 118.747 152.594 136.418 138.711 150.202C123.49 165.319 103.496 175.503 84.4016 185.232C81.5491 170.134 94.7471 170.134 111.004 159.27Z" fill="white"/>
</g>
<path d="M31.459 53.3907C36.6895 44.173 45.4366 38.1724 57.4568 35.5581L61.6747 34.6409C70.4135 36.3519 78.6037 40.3271 84.4034 47.0738C92.903 37.1876 106.538 33.2243 119.497 33.6799C137.016 34.2967 150.133 43.3075 158.179 55.9672L158.682 59.9643C159.617 67.3855 158.977 74.9578 156.83 81.8597C154.918 88.0194 152.02 92.9078 148.217 96.3916C145.779 98.6279 142.933 100.162 139.119 101.302C140.151 98.3275 141.009 95.3013 141.574 92.2055C143.218 83.3121 142.386 73.6904 137.459 66.0027C132.018 57.5072 121.621 52.2029 111.278 52.6506C100.943 53.0963 89.0378 59.1207 84.4013 68.046C79.7648 59.1207 67.8622 53.0963 57.527 52.6506C47.1815 52.2029 36.7865 57.5072 31.3456 66.0027C28.4148 70.5688 26.9401 75.8173 26.5627 81.1912C25.5541 73.1055 26.2884 62.499 31.459 53.3907Z" fill="white"/>
<mask id="mask5_297_252" style="mask-type:luminance" maskUnits="userSpaceOnUse" x="94" y="42" width="44" height="18">
<path d="M94.7764 42.8301H137.107V59.0233H94.7764V42.8301Z" fill="white"/>
</mask>
<g mask="url(#mask5_297_252)">
<path d="M94.7764 59.0233V42.8301H137.107V59.0233H94.7764Z" fill="white"/>
</g>
</svg>
