<svg xmlns="http://www.w3.org/2000/svg" xmlns:xlink="http://www.w3.org/1999/xlink" width="500" zoomAndPan="magnify" viewBox="0 0 375 374.999991" height="500" preserveAspectRatio="xMidYMid meet" version="1.0"><defs><g/><clipPath id="2b987ddb79"><path d="M 41 176 L 101.597656 176 L 101.597656 236.773438 L 41 236.773438 Z M 41 176 " clip-rule="nonzero"/></clipPath><clipPath id="47746f4e54"><path d="M 14.121094 149.300781 L 75 149.300781 L 75 210 L 14.121094 210 Z M 14.121094 149.300781 " clip-rule="nonzero"/></clipPath><clipPath id="b71584d297"><path d="M 41.714844 145.503906 L 74.226562 145.503906 L 74.226562 169.941406 L 41.714844 169.941406 Z M 41.714844 145.503906 " clip-rule="nonzero"/></clipPath><clipPath id="8a90094e92"><path d="M 75.671875 176.550781 L 85.375 176.550781 L 85.375 195.050781 L 75.671875 195.050781 Z M 75.671875 176.550781 " clip-rule="nonzero"/></clipPath><clipPath id="7ae587b6ac"><path d="M 44 172 L 88 172 L 88 238.902344 L 44 238.902344 Z M 44 172 " clip-rule="nonzero"/></clipPath><clipPath id="06527fac08"><path d="M 50.40625 162.996094 L 72.238281 162.996094 L 72.238281 171.652344 L 50.40625 171.652344 Z M 50.40625 162.996094 " clip-rule="nonzero"/></clipPath></defs><g fill="#000000" fill-opacity="1"><g transform="translate(118.611921, 201.689795)"><g><path d="M 12.46875 -17.234375 C 12.019531 -17.492188 11.613281 -17.71875 11.25 -17.90625 C 10.882812 -18.09375 10.546875 -18.253906 10.234375 -18.390625 C 9.921875 -18.523438 9.625 -18.625 9.34375 -18.6875 C 9.070312 -18.75 8.800781 -18.78125 8.53125 -18.78125 C 8.164062 -18.78125 7.8125 -18.738281 7.46875 -18.65625 C 7.132812 -18.570312 6.832031 -18.4375 6.5625 -18.25 C 6.300781 -18.070312 6.085938 -17.832031 5.921875 -17.53125 C 5.765625 -17.238281 5.6875 -16.878906 5.6875 -16.453125 C 5.6875 -16.054688 5.78125 -15.707031 5.96875 -15.40625 C 6.15625 -15.101562 6.398438 -14.828125 6.703125 -14.578125 C 7.015625 -14.335938 7.367188 -14.113281 7.765625 -13.90625 C 8.160156 -13.707031 8.578125 -13.515625 9.015625 -13.328125 C 9.492188 -13.097656 9.984375 -12.863281 10.484375 -12.625 C 10.992188 -12.382812 11.484375 -12.117188 11.953125 -11.828125 C 12.421875 -11.546875 12.859375 -11.234375 13.265625 -10.890625 C 13.671875 -10.554688 14.023438 -10.171875 14.328125 -9.734375 C 14.640625 -9.304688 14.882812 -8.828125 15.0625 -8.296875 C 15.238281 -7.773438 15.328125 -7.191406 15.328125 -6.546875 C 15.328125 -5.421875 15.09375 -4.429688 14.625 -3.578125 C 14.15625 -2.734375 13.53125 -2.023438 12.75 -1.453125 C 11.976562 -0.890625 11.085938 -0.460938 10.078125 -0.171875 C 9.066406 0.109375 8.03125 0.25 6.96875 0.25 C 5.738281 0.25 4.601562 0.078125 3.5625 -0.265625 C 2.519531 -0.617188 1.476562 -1.117188 0.4375 -1.765625 L 2.453125 -5.09375 C 2.722656 -4.914062 3.035156 -4.722656 3.390625 -4.515625 C 3.753906 -4.304688 4.132812 -4.113281 4.53125 -3.9375 C 4.9375 -3.757812 5.34375 -3.609375 5.75 -3.484375 C 6.164062 -3.367188 6.5625 -3.3125 6.9375 -3.3125 C 7.363281 -3.3125 7.785156 -3.363281 8.203125 -3.46875 C 8.617188 -3.570312 8.988281 -3.742188 9.3125 -3.984375 C 9.644531 -4.222656 9.910156 -4.53125 10.109375 -4.90625 C 10.304688 -5.28125 10.40625 -5.738281 10.40625 -6.28125 C 10.40625 -6.8125 10.285156 -7.273438 10.046875 -7.671875 C 9.816406 -8.066406 9.507812 -8.414062 9.125 -8.71875 C 8.738281 -9.03125 8.300781 -9.3125 7.8125 -9.5625 C 7.320312 -9.8125 6.828125 -10.050781 6.328125 -10.28125 C 5.628906 -10.613281 4.941406 -10.957031 4.265625 -11.3125 C 3.585938 -11.664062 2.976562 -12.066406 2.4375 -12.515625 C 1.894531 -12.960938 1.457031 -13.472656 1.125 -14.046875 C 0.789062 -14.617188 0.625 -15.285156 0.625 -16.046875 C 0.625 -17.023438 0.84375 -17.894531 1.28125 -18.65625 C 1.71875 -19.425781 2.289062 -20.070312 3 -20.59375 C 3.707031 -21.113281 4.507812 -21.507812 5.40625 -21.78125 C 6.3125 -22.050781 7.234375 -22.1875 8.171875 -22.1875 C 9.316406 -22.1875 10.414062 -22.003906 11.46875 -21.640625 C 12.519531 -21.285156 13.585938 -20.742188 14.671875 -20.015625 Z M 12.46875 -17.234375 "/></g></g></g><g fill="#000000" fill-opacity="1"><g transform="translate(143.178553, 201.689795)"><g><path d="M 15.890625 -3.328125 L 15.484375 0 L 1.484375 0 L 1.734375 -3.375 L 1.734375 -18.46875 L 1.234375 -21.9375 L 15.34375 -21.9375 L 15.34375 -18.609375 L 6.65625 -18.609375 L 6.875 -16.578125 L 6.875 -13.390625 L 14.375 -13.390625 L 14.375 -10.28125 L 6.875 -10.28125 L 6.875 -5.265625 L 6.75 -3.328125 Z M 15.890625 -3.328125 "/></g></g></g><g fill="#000000" fill-opacity="1"><g transform="translate(169.207413, 201.689795)"><g><path d="M 7.625 -8.25 C 7.507812 -8.382812 7.382812 -8.460938 7.25 -8.484375 C 7.113281 -8.515625 7.007812 -8.53125 6.9375 -8.53125 L 6.9375 0 L 1.78125 0 L 1.78125 -18.453125 L 1.234375 -21.671875 C 1.671875 -21.722656 2.164062 -21.773438 2.71875 -21.828125 C 3.269531 -21.878906 3.832031 -21.925781 4.40625 -21.96875 C 4.988281 -22.007812 5.554688 -22.039062 6.109375 -22.0625 C 6.660156 -22.082031 7.148438 -22.09375 7.578125 -22.09375 C 8.910156 -22.09375 10.125 -21.957031 11.21875 -21.6875 C 12.320312 -21.425781 13.265625 -21.03125 14.046875 -20.5 C 14.828125 -19.96875 15.4375 -19.304688 15.875 -18.515625 C 16.3125 -17.734375 16.53125 -16.832031 16.53125 -15.8125 C 16.53125 -14.757812 16.363281 -13.851562 16.03125 -13.09375 C 15.707031 -12.34375 15.265625 -11.703125 14.703125 -11.171875 C 14.148438 -10.640625 13.507812 -10.203125 12.78125 -9.859375 C 12.0625 -9.515625 11.304688 -9.238281 10.515625 -9.03125 L 12.5625 -8.546875 L 18.9375 0 L 13.5625 0 Z M 6.9375 -16.53125 L 6.9375 -11.734375 L 7.875 -11.734375 C 8.519531 -11.734375 9.082031 -11.835938 9.5625 -12.046875 C 10.050781 -12.253906 10.453125 -12.53125 10.765625 -12.875 C 11.085938 -13.226562 11.328125 -13.640625 11.484375 -14.109375 C 11.640625 -14.578125 11.71875 -15.070312 11.71875 -15.59375 C 11.71875 -16.269531 11.601562 -16.832031 11.375 -17.28125 C 11.144531 -17.726562 10.847656 -18.085938 10.484375 -18.359375 C 10.117188 -18.628906 9.707031 -18.816406 9.25 -18.921875 C 8.800781 -19.023438 8.359375 -19.078125 7.921875 -19.078125 L 7.15625 -19.078125 C 7.070312 -19.078125 6.992188 -19.078125 6.921875 -19.078125 C 6.847656 -19.078125 6.769531 -19.070312 6.6875 -19.0625 Z M 6.9375 -16.53125 "/></g></g></g><g fill="#000000" fill-opacity="1"><g transform="translate(196.698499, 201.689795)"><g><path d="M 18.859375 -21.9375 L 12.875 -2.984375 L 12.453125 0.359375 L 6.734375 -0.078125 L -0.234375 -21.828125 L 4.46875 -22.3125 L 8.171875 -10.234375 L 9.546875 -3.796875 L 10.5625 -10.234375 L 14.1875 -21.9375 Z M 18.859375 -21.9375 "/></g></g></g><g fill="#000000" fill-opacity="1"><g transform="translate(224.189592, 201.689795)"><g><path d="M 15.890625 -3.328125 L 15.484375 0 L 1.484375 0 L 1.734375 -3.375 L 1.734375 -18.46875 L 1.234375 -21.9375 L 15.34375 -21.9375 L 15.34375 -18.609375 L 6.65625 -18.609375 L 6.875 -16.578125 L 6.875 -13.390625 L 14.375 -13.390625 L 14.375 -10.28125 L 6.875 -10.28125 L 6.875 -5.265625 L 6.75 -3.328125 Z M 15.890625 -3.328125 "/></g></g></g><g fill="#000000" fill-opacity="1"><g transform="translate(250.218456, 201.689795)"><g><path d="M 1.8125 -9.125 L 10.984375 -9.125 L 10.984375 -5.84375 L 1.8125 -5.84375 Z M 1.8125 -9.125 "/></g></g></g><g fill="#000000" fill-opacity="1"><g transform="translate(271.860632, 201.689795)"><g><path d="M 15.890625 -3.328125 L 15.484375 0 L 1.484375 0 L 1.734375 -3.375 L 1.734375 -18.46875 L 1.234375 -21.9375 L 15.34375 -21.9375 L 15.34375 -18.609375 L 6.65625 -18.609375 L 6.875 -16.578125 L 6.875 -13.390625 L 14.375 -13.390625 L 14.375 -10.28125 L 6.875 -10.28125 L 6.875 -5.265625 L 6.75 -3.328125 Z M 15.890625 -3.328125 "/></g></g></g><g fill="#000000" fill-opacity="1"><g transform="translate(297.889496, 201.689795)"><g><path d="M 0.09375 0 L 5.90625 -18.78125 L 6.421875 -21.84375 L 11.953125 -22.296875 L 18.953125 0 L 13.953125 0 L 12.25 -6.25 L 6.515625 -6.25 L 4.875 0 Z M 9.390625 -19.90625 L 8.609375 -14.484375 L 7.390625 -9.453125 L 11.390625 -9.453125 L 10.15625 -14.484375 Z M 9.390625 -19.90625 "/></g></g></g><g fill="#000000" fill-opacity="1"><g transform="translate(325.380589, 201.689795)"><g><path d="M 12.46875 -17.234375 C 12.019531 -17.492188 11.613281 -17.71875 11.25 -17.90625 C 10.882812 -18.09375 10.546875 -18.253906 10.234375 -18.390625 C 9.921875 -18.523438 9.625 -18.625 9.34375 -18.6875 C 9.070312 -18.75 8.800781 -18.78125 8.53125 -18.78125 C 8.164062 -18.78125 7.8125 -18.738281 7.46875 -18.65625 C 7.132812 -18.570312 6.832031 -18.4375 6.5625 -18.25 C 6.300781 -18.070312 6.085938 -17.832031 5.921875 -17.53125 C 5.765625 -17.238281 5.6875 -16.878906 5.6875 -16.453125 C 5.6875 -16.054688 5.78125 -15.707031 5.96875 -15.40625 C 6.15625 -15.101562 6.398438 -14.828125 6.703125 -14.578125 C 7.015625 -14.335938 7.367188 -14.113281 7.765625 -13.90625 C 8.160156 -13.707031 8.578125 -13.515625 9.015625 -13.328125 C 9.492188 -13.097656 9.984375 -12.863281 10.484375 -12.625 C 10.992188 -12.382812 11.484375 -12.117188 11.953125 -11.828125 C 12.421875 -11.546875 12.859375 -11.234375 13.265625 -10.890625 C 13.671875 -10.554688 14.023438 -10.171875 14.328125 -9.734375 C 14.640625 -9.304688 14.882812 -8.828125 15.0625 -8.296875 C 15.238281 -7.773438 15.328125 -7.191406 15.328125 -6.546875 C 15.328125 -5.421875 15.09375 -4.429688 14.625 -3.578125 C 14.15625 -2.734375 13.53125 -2.023438 12.75 -1.453125 C 11.976562 -0.890625 11.085938 -0.460938 10.078125 -0.171875 C 9.066406 0.109375 8.03125 0.25 6.96875 0.25 C 5.738281 0.25 4.601562 0.078125 3.5625 -0.265625 C 2.519531 -0.617188 1.476562 -1.117188 0.4375 -1.765625 L 2.453125 -5.09375 C 2.722656 -4.914062 3.035156 -4.722656 3.390625 -4.515625 C 3.753906 -4.304688 4.132812 -4.113281 4.53125 -3.9375 C 4.9375 -3.757812 5.34375 -3.609375 5.75 -3.484375 C 6.164062 -3.367188 6.5625 -3.3125 6.9375 -3.3125 C 7.363281 -3.3125 7.785156 -3.363281 8.203125 -3.46875 C 8.617188 -3.570312 8.988281 -3.742188 9.3125 -3.984375 C 9.644531 -4.222656 9.910156 -4.53125 10.109375 -4.90625 C 10.304688 -5.28125 10.40625 -5.738281 10.40625 -6.28125 C 10.40625 -6.8125 10.285156 -7.273438 10.046875 -7.671875 C 9.816406 -8.066406 9.507812 -8.414062 9.125 -8.71875 C 8.738281 -9.03125 8.300781 -9.3125 7.8125 -9.5625 C 7.320312 -9.8125 6.828125 -10.050781 6.328125 -10.28125 C 5.628906 -10.613281 4.941406 -10.957031 4.265625 -11.3125 C 3.585938 -11.664062 2.976562 -12.066406 2.4375 -12.515625 C 1.894531 -12.960938 1.457031 -13.472656 1.125 -14.046875 C 0.789062 -14.617188 0.625 -15.285156 0.625 -16.046875 C 0.625 -17.023438 0.84375 -17.894531 1.28125 -18.65625 C 1.71875 -19.425781 2.289062 -20.070312 3 -20.59375 C 3.707031 -21.113281 4.507812 -21.507812 5.40625 -21.78125 C 6.3125 -22.050781 7.234375 -22.1875 8.171875 -22.1875 C 9.316406 -22.1875 10.414062 -22.003906 11.46875 -21.640625 C 12.519531 -21.285156 13.585938 -20.742188 14.671875 -20.015625 Z M 12.46875 -17.234375 "/></g></g></g><g fill="#000000" fill-opacity="1"><g transform="translate(349.947212, 201.689795)"><g><path d="M 15.890625 -3.328125 L 15.484375 0 L 1.484375 0 L 1.734375 -3.375 L 1.734375 -18.46875 L 1.234375 -21.9375 L 15.34375 -21.9375 L 15.34375 -18.609375 L 6.65625 -18.609375 L 6.875 -16.578125 L 6.875 -13.390625 L 14.375 -13.390625 L 14.375 -10.28125 L 6.875 -10.28125 L 6.875 -5.265625 L 6.75 -3.328125 Z M 15.890625 -3.328125 "/></g></g></g><g clip-path="url(#2b987ddb79)"><path fill="#000000" d="M 74.347656 176.539062 C 74.347656 176.539062 73.054688 177.054688 70.9375 178.183594 C 52.707031 187.894531 41.363281 206.910156 41.363281 227.566406 L 41.363281 236.769531 L 74.347656 236.769531 L 74.347656 209.527344 L 101.589844 209.527344 L 101.589844 176.539062 L 74.347656 176.539062 " fill-opacity="1" fill-rule="nonzero"/></g><g clip-path="url(#47746f4e54)"><path fill="#ffffff" d="M 41.363281 149.296875 L 41.363281 176.539062 L 14.117188 176.539062 L 14.117188 209.527344 C 23.417969 209.527344 32.242188 205.324219 38.027344 198.046875 C 45.453125 188.699219 56.886719 180.679688 74.347656 176.539062 L 74.347656 149.296875 L 41.363281 149.296875 " fill-opacity="1" fill-rule="nonzero"/></g><g clip-path="url(#b71584d297)"><path fill="#000000" d="M 41.714844 169.941406 L 41.714844 145.503906 L 74.226562 145.503906 L 74.226562 169.941406 Z M 41.714844 169.941406 " fill-opacity="1" fill-rule="nonzero"/></g><g clip-path="url(#8a90094e92)"><path fill="#ffffff" d="M 75.671875 195.050781 L 75.671875 176.550781 L 85.375 176.550781 L 85.375 195.050781 Z M 75.671875 195.050781 " fill-opacity="1" fill-rule="nonzero"/></g><path fill="#f43959" d="M 27.542969 192.949219 C 23.324219 192.949219 19.902344 189.53125 19.902344 185.320312 C 19.902344 181.105469 23.324219 177.6875 27.542969 177.6875 C 31.761719 177.6875 35.179688 181.105469 35.179688 185.320312 C 35.179688 189.53125 31.761719 192.949219 27.542969 192.949219 Z M 27.542969 192.949219 " fill-opacity="1" fill-rule="nonzero"/><path fill="#f43959" d="M 27.011719 158.113281 C 28.339844 158.0625 29.683594 158.105469 31.015625 158.253906 C 12.597656 162.398438 12.90625 181.144531 15.464844 188.222656 C 15.480469 188.261719 15.496094 188.304688 15.511719 188.34375 C 16.628906 191.386719 18.464844 194.675781 21.328125 196.402344 C 25.1875 198.714844 30.246094 197.410156 33.683594 194.941406 C 42.597656 188.542969 45.472656 174.894531 58.078125 173.527344 C 62.574219 173.039062 65.902344 175.046875 65.902344 175.046875 C 65.902344 175.046875 53.851562 179.5 45.09375 198.304688 C 38.601562 212.253906 39.964844 228.023438 41.605469 237.03125 C 32.863281 232.378906 24.03125 227.320312 17.113281 220.210938 C 9.960938 212.863281 4.535156 203.445312 2.808594 193.273438 C 0.0664062 177.132812 9.054688 158.769531 27.011719 158.113281 Z M 27.011719 158.113281 " fill-opacity="1" fill-rule="nonzero"/><path fill="#ffffff" d="M 58.40625 219.621094 C 61.207031 218.253906 63.476562 216.675781 66.703125 213.660156 C 62.707031 220.96875 54.429688 226.449219 45.09375 229.335938 C 45.09375 226.535156 45.734375 225.167969 48.324219 223.691406 C 51.472656 221.890625 55.15625 221.210938 58.40625 219.621094 Z M 58.40625 219.621094 " fill-opacity="1" fill-rule="nonzero"/><path fill="#ffffff" d="M 64.878906 211.453125 C 60.910156 216.371094 54.742188 218.789062 47.917969 220.539062 C 47.917969 216.757812 51.863281 215.46875 54.292969 215.175781 C 59.65625 214.53125 64.878906 211.453125 64.878906 211.453125 Z M 64.878906 211.453125 " fill-opacity="1" fill-rule="nonzero"/><g clip-path="url(#7ae587b6ac)"><path fill="#ffffff" d="M 58.800781 225.042969 C 63.933594 221.488281 67.269531 218.246094 68.890625 212.222656 C 69.414062 210.273438 69.582031 207.910156 68.117188 206.515625 C 66.875 205.335938 64.910156 205.34375 63.242188 205.746094 C 61.574219 206.144531 59.953125 206.867188 58.234375 206.882812 C 56.515625 206.890625 53.96875 206.132812 53.765625 204.425781 C 57.707031 200.113281 63.082031 197.128906 68.832031 196.058594 C 70.246094 195.792969 71.617188 195.542969 72.933594 195.175781 C 74.992188 194.609375 76.898438 193.769531 78.582031 192.171875 C 80.894531 189.980469 82.351562 187.058594 83.257812 184.042969 C 84.414062 180.191406 84.730469 176.039062 84.242188 172.015625 C 87.480469 178.351562 88.609375 186.035156 87.378906 193.273438 C 85.652344 203.449219 80.226562 212.867188 73.074219 220.210938 C 65.234375 228.265625 54.929688 233.695312 45.09375 238.878906 C 43.625 230.832031 50.421875 230.832031 58.800781 225.042969 Z M 58.800781 225.042969 " fill-opacity="1" fill-rule="nonzero"/></g><path fill="#ffffff" d="M 17.816406 168.617188 C 20.511719 163.703125 25.019531 160.507812 31.210938 159.113281 L 33.382812 158.625 C 37.886719 159.535156 42.105469 161.652344 45.09375 165.25 C 49.472656 159.980469 56.5 157.867188 63.175781 158.113281 C 72.203125 158.441406 78.960938 163.242188 83.105469 169.988281 L 83.363281 172.121094 C 83.847656 176.074219 83.515625 180.109375 82.410156 183.789062 C 81.425781 187.070312 79.933594 189.675781 77.972656 191.535156 C 76.714844 192.726562 75.25 193.542969 73.285156 194.148438 C 73.816406 192.566406 74.257812 190.953125 74.550781 189.300781 C 75.398438 184.5625 74.96875 179.433594 72.429688 175.339844 C 69.625 170.808594 64.269531 167.984375 58.941406 168.222656 C 53.617188 168.460938 47.484375 171.667969 45.09375 176.425781 C 42.707031 171.667969 36.570312 168.460938 31.246094 168.222656 C 25.917969 167.984375 20.5625 170.808594 17.757812 175.339844 C 16.25 177.769531 15.488281 180.570312 15.292969 183.433594 C 14.773438 179.125 15.152344 173.472656 17.816406 168.617188 Z M 17.816406 168.617188 " fill-opacity="1" fill-rule="nonzero"/><g clip-path="url(#06527fac08)"><path fill="#ffffff" d="M 50.40625 171.652344 L 50.40625 162.996094 L 72.238281 162.996094 L 72.238281 171.652344 Z M 50.40625 171.652344 " fill-opacity="1" fill-rule="nonzero"/></g></svg>