<svg width="30" height="30" viewBox="0 0 30 30" fill="none" xmlns="http://www.w3.org/2000/svg">
<path d="M3.75 13.125H21.75L17.4187 8.79375C17.0494 8.42438 16.875 7.98375 16.875 7.5C16.875 6.5775 17.6372 5.625 18.75 5.625C19.2478 5.625 19.6819 5.80594 20.0437 6.16875L27.5044 13.6294C27.8119 13.9369 28.125 14.3166 28.125 15C28.125 15.6834 27.8634 16.0125 27.5194 16.3566L20.0437 23.8312C19.6819 24.1941 19.2478 24.375 18.75 24.375C17.6363 24.375 16.875 23.4225 16.875 22.5C16.875 22.0163 17.0494 21.5756 17.4187 21.2063L21.75 16.875H3.75C3.25272 16.875 2.77581 16.6775 2.42418 16.3258C2.07254 15.9742 1.875 15.4973 1.875 15C1.875 14.5027 2.07254 14.0258 2.42418 13.6742C2.77581 13.3225 3.25272 13.125 3.75 13.125Z" fill="black"/>
</svg>
