<svg xmlns="http://www.w3.org/2000/svg" xmlns:xlink="http://www.w3.org/1999/xlink" width="1000" zoomAndPan="magnify" viewBox="0 0 750 149.999998" height="200" preserveAspectRatio="xMidYMid meet" version="1.0"><defs><g/></defs><g fill="#000000" fill-opacity="1"><g transform="translate(82.37493, 110.696847)"><g><path d="M 34.5625 1.015625 C 28.851562 1.015625 23.632812 0.0820312 18.90625 -1.78125 C 14.1875 -3.65625 9.6875 -6.53125 5.40625 -10.40625 L 10.40625 -16.3125 C 14.144531 -12.914062 17.914062 -10.382812 21.71875 -8.71875 C 25.519531 -7.050781 29.90625 -6.21875 34.875 -6.21875 C 39.695312 -6.21875 43.550781 -7.351562 46.4375 -9.625 C 49.332031 -11.90625 50.78125 -14.816406 50.78125 -18.359375 L 50.78125 -18.5625 C 50.78125 -20.1875 50.507812 -21.660156 49.96875 -22.984375 C 49.425781 -24.316406 48.472656 -25.523438 47.109375 -26.609375 C 45.742188 -27.703125 43.851562 -28.6875 41.4375 -29.5625 C 39.03125 -30.445312 35.957031 -31.300781 32.21875 -32.125 C 28.144531 -33.007812 24.59375 -34.023438 21.5625 -35.171875 C 18.539062 -36.328125 16.039062 -37.722656 14.0625 -39.359375 C 12.09375 -40.992188 10.632812 -42.894531 9.6875 -45.0625 C 8.738281 -47.238281 8.265625 -49.789062 8.265625 -52.71875 L 8.265625 -52.921875 C 8.265625 -55.710938 8.835938 -58.296875 9.984375 -60.671875 C 11.140625 -63.046875 12.769531 -65.097656 14.875 -66.828125 C 16.988281 -68.566406 19.472656 -69.925781 22.328125 -70.90625 C 25.179688 -71.894531 28.3125 -72.390625 31.71875 -72.390625 C 36.945312 -72.390625 41.515625 -71.660156 45.421875 -70.203125 C 49.335938 -68.742188 53.128906 -66.550781 56.796875 -63.625 L 52.109375 -57.40625 C 48.773438 -60.125 45.425781 -62.09375 42.0625 -63.3125 C 38.695312 -64.539062 35.179688 -65.15625 31.515625 -65.15625 C 26.816406 -65.15625 23.109375 -64.050781 20.390625 -61.84375 C 17.671875 -59.632812 16.3125 -56.898438 16.3125 -53.640625 L 16.3125 -53.4375 C 16.3125 -51.726562 16.582031 -50.210938 17.125 -48.890625 C 17.675781 -47.566406 18.664062 -46.34375 20.09375 -45.21875 C 21.519531 -44.101562 23.488281 -43.082031 26 -42.15625 C 28.519531 -41.238281 31.75 -40.375 35.6875 -39.5625 C 43.644531 -37.789062 49.507812 -35.34375 53.28125 -32.21875 C 57.050781 -29.09375 58.9375 -24.8125 58.9375 -19.375 L 58.9375 -19.171875 C 58.9375 -16.109375 58.320312 -13.335938 57.09375 -10.859375 C 55.875 -8.378906 54.191406 -6.253906 52.046875 -4.484375 C 49.910156 -2.710938 47.347656 -1.351562 44.359375 -0.40625 C 41.367188 0.539062 38.101562 1.015625 34.5625 1.015625 Z M 34.5625 1.015625 "/></g></g></g><g fill="#000000" fill-opacity="1"><g transform="translate(138.039865, 110.696847)"><g><path d="M 31.8125 1.21875 C 28.207031 1.21875 24.804688 0.554688 21.609375 -0.765625 C 18.421875 -2.085938 15.632812 -3.957031 13.25 -6.375 C 10.875 -8.789062 8.988281 -11.679688 7.59375 -15.046875 C 6.195312 -18.410156 5.5 -22.128906 5.5 -26.203125 L 5.5 -26.40625 C 5.5 -30.21875 6.128906 -33.785156 7.390625 -37.109375 C 8.648438 -40.441406 10.398438 -43.347656 12.640625 -45.828125 C 14.890625 -48.316406 17.554688 -50.273438 20.640625 -51.703125 C 23.734375 -53.128906 27.117188 -53.84375 30.796875 -53.84375 C 34.671875 -53.84375 38.132812 -53.109375 41.1875 -51.640625 C 44.25 -50.179688 46.832031 -48.191406 48.9375 -45.671875 C 51.050781 -43.160156 52.648438 -40.222656 53.734375 -36.859375 C 54.828125 -33.492188 55.375 -29.875 55.375 -26 C 55.375 -25.457031 55.375 -25.015625 55.375 -24.671875 C 55.375 -24.335938 55.335938 -23.929688 55.265625 -23.453125 L 13.453125 -23.453125 C 13.734375 -20.597656 14.414062 -18.066406 15.5 -15.859375 C 16.582031 -13.648438 17.957031 -11.78125 19.625 -10.25 C 21.289062 -8.71875 23.175781 -7.5625 25.28125 -6.78125 C 27.394531 -6 29.640625 -5.609375 32.015625 -5.609375 C 35.691406 -5.609375 38.835938 -6.285156 41.453125 -7.640625 C 44.066406 -9.003906 46.460938 -10.804688 48.640625 -13.046875 L 53.53125 -8.671875 C 50.882812 -5.679688 47.859375 -3.285156 44.453125 -1.484375 C 41.054688 0.316406 36.84375 1.21875 31.8125 1.21875 Z M 47.421875 -29.265625 C 47.210938 -31.640625 46.71875 -33.914062 45.9375 -36.09375 C 45.15625 -38.269531 44.066406 -40.171875 42.671875 -41.796875 C 41.273438 -43.429688 39.570312 -44.742188 37.5625 -45.734375 C 35.5625 -46.722656 33.238281 -47.21875 30.59375 -47.21875 C 28.28125 -47.21875 26.132812 -46.753906 24.15625 -45.828125 C 22.1875 -44.910156 20.453125 -43.65625 18.953125 -42.0625 C 17.460938 -40.46875 16.242188 -38.582031 15.296875 -36.40625 C 14.347656 -34.226562 13.734375 -31.847656 13.453125 -29.265625 Z M 47.421875 -29.265625 "/></g></g></g><g fill="#000000" fill-opacity="1"><g transform="translate(188.811054, 110.696847)"><g><path d="M 8.765625 -52.71875 L 16.625 -52.71875 L 16.625 -38.953125 C 17.570312 -41.128906 18.757812 -43.132812 20.1875 -44.96875 C 21.613281 -46.800781 23.242188 -48.378906 25.078125 -49.703125 C 26.921875 -51.035156 28.925781 -52.039062 31.09375 -52.71875 C 33.269531 -53.394531 35.617188 -53.703125 38.140625 -53.640625 L 38.140625 -45.171875 L 37.53125 -45.171875 C 34.664062 -45.171875 31.957031 -44.660156 29.40625 -43.640625 C 26.863281 -42.617188 24.640625 -41.085938 22.734375 -39.046875 C 20.835938 -37.015625 19.34375 -34.484375 18.25 -31.453125 C 17.164062 -28.429688 16.625 -24.945312 16.625 -21 L 16.625 0 L 8.765625 0 Z M 8.765625 -52.71875 "/></g></g></g><g fill="#000000" fill-opacity="1"><g transform="translate(220.517011, 110.696847)"><g><path d="M 3.5625 -52.71875 L 12.234375 -52.71875 L 29.984375 -8.96875 L 47.828125 -52.71875 L 56.28125 -52.71875 L 33.34375 0.40625 L 26.40625 0.40625 Z M 3.5625 -52.71875 "/></g></g></g><g fill="#000000" fill-opacity="1"><g transform="translate(270.778429, 110.696847)"><g><path d="M 31.8125 1.21875 C 28.207031 1.21875 24.804688 0.554688 21.609375 -0.765625 C 18.421875 -2.085938 15.632812 -3.957031 13.25 -6.375 C 10.875 -8.789062 8.988281 -11.679688 7.59375 -15.046875 C 6.195312 -18.410156 5.5 -22.128906 5.5 -26.203125 L 5.5 -26.40625 C 5.5 -30.21875 6.128906 -33.785156 7.390625 -37.109375 C 8.648438 -40.441406 10.398438 -43.347656 12.640625 -45.828125 C 14.890625 -48.316406 17.554688 -50.273438 20.640625 -51.703125 C 23.734375 -53.128906 27.117188 -53.84375 30.796875 -53.84375 C 34.671875 -53.84375 38.132812 -53.109375 41.1875 -51.640625 C 44.25 -50.179688 46.832031 -48.191406 48.9375 -45.671875 C 51.050781 -43.160156 52.648438 -40.222656 53.734375 -36.859375 C 54.828125 -33.492188 55.375 -29.875 55.375 -26 C 55.375 -25.457031 55.375 -25.015625 55.375 -24.671875 C 55.375 -24.335938 55.335938 -23.929688 55.265625 -23.453125 L 13.453125 -23.453125 C 13.734375 -20.597656 14.414062 -18.066406 15.5 -15.859375 C 16.582031 -13.648438 17.957031 -11.78125 19.625 -10.25 C 21.289062 -8.71875 23.175781 -7.5625 25.28125 -6.78125 C 27.394531 -6 29.640625 -5.609375 32.015625 -5.609375 C 35.691406 -5.609375 38.835938 -6.285156 41.453125 -7.640625 C 44.066406 -9.003906 46.460938 -10.804688 48.640625 -13.046875 L 53.53125 -8.671875 C 50.882812 -5.679688 47.859375 -3.285156 44.453125 -1.484375 C 41.054688 0.316406 36.84375 1.21875 31.8125 1.21875 Z M 47.421875 -29.265625 C 47.210938 -31.640625 46.71875 -33.914062 45.9375 -36.09375 C 45.15625 -38.269531 44.066406 -40.171875 42.671875 -41.796875 C 41.273438 -43.429688 39.570312 -44.742188 37.5625 -45.734375 C 35.5625 -46.722656 33.238281 -47.21875 30.59375 -47.21875 C 28.28125 -47.21875 26.132812 -46.753906 24.15625 -45.828125 C 22.1875 -44.910156 20.453125 -43.65625 18.953125 -42.0625 C 17.460938 -40.46875 16.242188 -38.582031 15.296875 -36.40625 C 14.347656 -34.226562 13.734375 -31.847656 13.453125 -29.265625 Z M 47.421875 -29.265625 "/></g></g></g><g fill="#000000" fill-opacity="1"><g transform="translate(321.549613, 110.696847)"><g><path d="M 6.625 -34.765625 L 34.96875 -34.765625 L 34.96875 -26.515625 L 6.625 -26.515625 Z M 6.625 -34.765625 "/></g></g></g><g fill="#000000" fill-opacity="1"><g transform="translate(353.561437, 110.696847)"><g><path d="M 10.09375 -71.375 L 61.6875 -71.375 L 61.6875 -64.03125 L 18.15625 -64.03125 L 18.15625 -39.671875 L 57.109375 -39.671875 L 57.109375 -32.328125 L 18.15625 -32.328125 L 18.15625 -7.34375 L 62.203125 -7.34375 L 62.203125 0 L 10.09375 0 Z M 10.09375 -71.375 "/></g></g></g><g fill="#000000" fill-opacity="1"><g transform="translate(412.28496, 110.696847)"><g><path d="M 24.46875 1.125 C 22.019531 1.125 19.625 0.78125 17.28125 0.09375 C 14.9375 -0.582031 12.828125 -1.613281 10.953125 -3 C 9.085938 -4.394531 7.59375 -6.113281 6.46875 -8.15625 C 5.351562 -10.195312 4.796875 -12.578125 4.796875 -15.296875 L 4.796875 -15.5 C 4.796875 -18.289062 5.335938 -20.738281 6.421875 -22.84375 C 7.515625 -24.945312 9.0625 -26.710938 11.0625 -28.140625 C 13.070312 -29.566406 15.453125 -30.65625 18.203125 -31.40625 C 20.953125 -32.15625 23.992188 -32.53125 27.328125 -32.53125 C 30.722656 -32.53125 33.675781 -32.320312 36.1875 -31.90625 C 38.707031 -31.5 41.160156 -30.957031 43.546875 -30.28125 L 43.546875 -32.125 C 43.546875 -36.882812 42.164062 -40.46875 39.40625 -42.875 C 36.65625 -45.289062 32.800781 -46.5 27.84375 -46.5 C 24.707031 -46.5 21.863281 -46.140625 19.3125 -45.421875 C 16.769531 -44.710938 14.273438 -43.78125 11.828125 -42.625 L 9.484375 -49.046875 C 12.410156 -50.410156 15.367188 -51.484375 18.359375 -52.265625 C 21.347656 -53.046875 24.78125 -53.4375 28.65625 -53.4375 C 36.132812 -53.4375 41.8125 -51.5 45.6875 -47.625 C 49.289062 -44.019531 51.09375 -38.882812 51.09375 -32.21875 L 51.09375 0 L 43.546875 0 L 43.546875 -7.953125 C 41.703125 -5.578125 39.234375 -3.46875 36.140625 -1.625 C 33.054688 0.207031 29.164062 1.125 24.46875 1.125 Z M 26 -5.09375 C 28.445312 -5.09375 30.738281 -5.445312 32.875 -6.15625 C 35.019531 -6.875 36.890625 -7.863281 38.484375 -9.125 C 40.085938 -10.382812 41.347656 -11.878906 42.265625 -13.609375 C 43.179688 -15.347656 43.640625 -17.269531 43.640625 -19.375 L 43.640625 -24.46875 C 41.671875 -25.007812 39.410156 -25.519531 36.859375 -26 C 34.304688 -26.476562 31.398438 -26.71875 28.140625 -26.71875 C 23.179688 -26.71875 19.375 -25.726562 16.71875 -23.75 C 14.070312 -21.78125 12.75 -19.132812 12.75 -15.8125 L 12.75 -15.59375 C 12.75 -13.96875 13.101562 -12.488281 13.8125 -11.15625 C 14.53125 -9.832031 15.5 -8.726562 16.71875 -7.84375 C 17.945312 -6.96875 19.359375 -6.289062 20.953125 -5.8125 C 22.546875 -5.332031 24.226562 -5.09375 26 -5.09375 Z M 26 -5.09375 "/></g></g></g><g fill="#000000" fill-opacity="1"><g transform="translate(461.730757, 110.696847)"><g><path d="M 26.203125 1.015625 C 22.398438 1.015625 18.5625 0.320312 14.6875 -1.0625 C 10.8125 -2.457031 7.378906 -4.347656 4.390625 -6.734375 L 8.359375 -12.34375 C 11.210938 -10.164062 14.1875 -8.5 17.28125 -7.34375 C 20.375 -6.1875 23.484375 -5.609375 26.609375 -5.609375 C 29.804688 -5.609375 32.425781 -6.351562 34.46875 -7.84375 C 36.507812 -9.34375 37.53125 -11.382812 37.53125 -13.96875 L 37.53125 -14.171875 C 37.53125 -15.460938 37.171875 -16.582031 36.453125 -17.53125 C 35.742188 -18.488281 34.773438 -19.320312 33.546875 -20.03125 C 32.328125 -20.75 30.914062 -21.378906 29.3125 -21.921875 C 27.71875 -22.460938 26.070312 -22.972656 24.375 -23.453125 C 22.332031 -24.066406 20.273438 -24.726562 18.203125 -25.4375 C 16.128906 -26.15625 14.257812 -27.054688 12.59375 -28.140625 C 10.925781 -29.234375 9.566406 -30.59375 8.515625 -32.21875 C 7.460938 -33.851562 6.9375 -35.894531 6.9375 -38.34375 L 6.9375 -38.546875 C 6.9375 -40.785156 7.375 -42.835938 8.25 -44.703125 C 9.132812 -46.578125 10.375 -48.175781 11.96875 -49.5 C 13.570312 -50.832031 15.476562 -51.851562 17.6875 -52.5625 C 19.894531 -53.28125 22.289062 -53.640625 24.875 -53.640625 C 28.144531 -53.640625 31.441406 -53.109375 34.765625 -52.046875 C 38.097656 -50.992188 41.125 -49.585938 43.84375 -47.828125 L 40.28125 -41.90625 C 37.832031 -43.46875 35.265625 -44.707031 32.578125 -45.625 C 29.890625 -46.539062 27.253906 -47 24.671875 -47 C 21.546875 -47 19.066406 -46.269531 17.234375 -44.8125 C 15.398438 -43.351562 14.484375 -41.535156 14.484375 -39.359375 L 14.484375 -39.15625 C 14.484375 -37.9375 14.851562 -36.863281 15.59375 -35.9375 C 16.34375 -35.019531 17.347656 -34.222656 18.609375 -33.546875 C 19.867188 -32.867188 21.3125 -32.253906 22.9375 -31.703125 C 24.570312 -31.160156 26.273438 -30.617188 28.046875 -30.078125 C 30.078125 -29.460938 32.09375 -28.78125 34.09375 -28.03125 C 36.101562 -27.289062 37.925781 -26.34375 39.5625 -25.1875 C 41.195312 -24.03125 42.503906 -22.632812 43.484375 -21 C 44.472656 -19.375 44.96875 -17.367188 44.96875 -14.984375 L 44.96875 -14.78125 C 44.96875 -12.269531 44.472656 -10.046875 43.484375 -8.109375 C 42.503906 -6.171875 41.179688 -4.519531 39.515625 -3.15625 C 37.847656 -1.800781 35.875 -0.765625 33.59375 -0.046875 C 31.320312 0.660156 28.859375 1.015625 26.203125 1.015625 Z M 26.203125 1.015625 "/></g></g></g><g fill="#000000" fill-opacity="1"><g transform="translate(502.918362, 110.696847)"><g><path d="M 31.8125 1.21875 C 28.207031 1.21875 24.804688 0.554688 21.609375 -0.765625 C 18.421875 -2.085938 15.632812 -3.957031 13.25 -6.375 C 10.875 -8.789062 8.988281 -11.679688 7.59375 -15.046875 C 6.195312 -18.410156 5.5 -22.128906 5.5 -26.203125 L 5.5 -26.40625 C 5.5 -30.21875 6.128906 -33.785156 7.390625 -37.109375 C 8.648438 -40.441406 10.398438 -43.347656 12.640625 -45.828125 C 14.890625 -48.316406 17.554688 -50.273438 20.640625 -51.703125 C 23.734375 -53.128906 27.117188 -53.84375 30.796875 -53.84375 C 34.671875 -53.84375 38.132812 -53.109375 41.1875 -51.640625 C 44.25 -50.179688 46.832031 -48.191406 48.9375 -45.671875 C 51.050781 -43.160156 52.648438 -40.222656 53.734375 -36.859375 C 54.828125 -33.492188 55.375 -29.875 55.375 -26 C 55.375 -25.457031 55.375 -25.015625 55.375 -24.671875 C 55.375 -24.335938 55.335938 -23.929688 55.265625 -23.453125 L 13.453125 -23.453125 C 13.734375 -20.597656 14.414062 -18.066406 15.5 -15.859375 C 16.582031 -13.648438 17.957031 -11.78125 19.625 -10.25 C 21.289062 -8.71875 23.175781 -7.5625 25.28125 -6.78125 C 27.394531 -6 29.640625 -5.609375 32.015625 -5.609375 C 35.691406 -5.609375 38.835938 -6.285156 41.453125 -7.640625 C 44.066406 -9.003906 46.460938 -10.804688 48.640625 -13.046875 L 53.53125 -8.671875 C 50.882812 -5.679688 47.859375 -3.285156 44.453125 -1.484375 C 41.054688 0.316406 36.84375 1.21875 31.8125 1.21875 Z M 47.421875 -29.265625 C 47.210938 -31.640625 46.71875 -33.914062 45.9375 -36.09375 C 45.15625 -38.269531 44.066406 -40.171875 42.671875 -41.796875 C 41.273438 -43.429688 39.570312 -44.742188 37.5625 -45.734375 C 35.5625 -46.722656 33.238281 -47.21875 30.59375 -47.21875 C 28.28125 -47.21875 26.132812 -46.753906 24.15625 -45.828125 C 22.1875 -44.910156 20.453125 -43.65625 18.953125 -42.0625 C 17.460938 -40.46875 16.242188 -38.582031 15.296875 -36.40625 C 14.347656 -34.226562 13.734375 -31.847656 13.453125 -29.265625 Z M 47.421875 -29.265625 "/></g></g></g><g fill="#dd1d86" fill-opacity="1"><g transform="translate(599.391499, 130.075336)"><g><path d="M 27.90625 -0.3125 L -3.28125 -72.34375 L 15.3125 -72.5625 L 34.109375 -25.21875 L 51.8125 -72.984375 L 70.40625 -73.1875 L 40.890625 -0.46875 Z M 27.90625 -0.3125 "/></g></g></g><g fill="#ff9d00" fill-opacity="1"><g transform="translate(577.6806, 14.037349)"><g><path d="M 93 27.375 C 93.570312 32.070312 93.445312 36.742188 92.625 41.390625 C 91.8125 46.046875 90.878906 49.539062 89.828125 51.875 L 88.109375 55.296875 L 71.375 49.25 C 71.707031 48.570312 72.140625 47.628906 72.671875 46.421875 C 73.203125 45.210938 73.835938 43 74.578125 39.78125 C 75.316406 36.5625 75.519531 33.625 75.1875 30.96875 C 74.78125 27.664062 73.765625 25.207031 72.140625 23.59375 C 70.523438 21.988281 68.523438 21.332031 66.140625 21.625 C 64.953125 21.769531 63.898438 22.320312 62.984375 23.28125 C 62.078125 24.25 61.171875 25.816406 60.265625 27.984375 C 59.359375 30.160156 58.648438 32.0625 58.140625 33.6875 C 57.628906 35.320312 56.875 37.835938 55.875 41.234375 C 54.175781 47.140625 51.519531 52.320312 47.90625 56.78125 C 44.300781 61.238281 39.90625 63.785156 34.71875 64.421875 C 29.75 65.035156 25.289062 64.679688 21.34375 63.359375 C 17.40625 62.035156 14.195312 59.941406 11.71875 57.078125 C 9.238281 54.210938 7.253906 50.953125 5.765625 47.296875 C 4.285156 43.640625 3.273438 39.601562 2.734375 35.1875 C 2.265625 31.40625 2.191406 27.644531 2.515625 23.90625 C 2.835938 20.164062 3.425781 17 4.28125 14.40625 C 5.132812 11.820312 6 9.476562 6.875 7.375 C 7.757812 5.269531 8.53125 3.710938 9.1875 2.703125 L 10.171875 1.203125 L 28 9.03125 C 27.40625 9.957031 26.65625 11.222656 25.75 12.828125 C 24.84375 14.429688 23.707031 17.21875 22.34375 21.1875 C 20.988281 25.164062 20.488281 28.59375 20.84375 31.46875 C 21.875 39.800781 25.222656 43.617188 30.890625 42.921875 C 32.085938 42.773438 33.15625 42.34375 34.09375 41.625 C 35.03125 40.90625 35.914062 39.726562 36.75 38.09375 C 37.582031 36.46875 38.222656 35.035156 38.671875 33.796875 C 39.128906 32.566406 39.804688 30.5625 40.703125 27.78125 C 41.609375 25.007812 42.300781 22.953125 42.78125 21.609375 C 44.726562 16.046875 47.46875 11.585938 51 8.234375 C 54.53125 4.878906 58.539062 2.925781 63.03125 2.375 C 70.800781 1.414062 77.507812 3.503906 83.15625 8.640625 C 88.8125 13.773438 92.09375 20.019531 93 27.375 Z M 93 27.375 "/></g></g></g><g fill="#f43959" fill-opacity="1"><g transform="translate(591.52227, 7.970107)"><g><path d="M 17.578125 43.21875 C 17.722656 45.75 18.25 48.179688 19.15625 50.515625 C 20.0625 52.859375 20.898438 54.578125 21.671875 55.671875 L 22.9375 57.28125 L 9.203125 65.171875 C 9.015625 64.941406 8.757812 64.628906 8.4375 64.234375 C 8.125 63.835938 7.523438 62.910156 6.640625 61.453125 C 5.753906 60.003906 4.96875 58.441406 4.28125 56.765625 C 3.59375 55.085938 2.929688 52.878906 2.296875 50.140625 C 1.660156 47.398438 1.257812 44.554688 1.09375 41.609375 C 0.695312 34.835938 1.984375 28.320312 4.953125 22.0625 C 7.929688 15.800781 12.226562 10.644531 17.84375 6.59375 C 23.46875 2.539062 29.664062 0.316406 36.4375 -0.078125 C 41.5625 -0.378906 46.546875 0.421875 51.390625 2.328125 C 56.234375 4.234375 60.4375 6.898438 64 10.328125 C 67.5625 13.753906 70.484375 17.820312 72.765625 22.53125 C 75.054688 27.238281 76.351562 32.128906 76.65625 37.203125 C 76.925781 41.921875 76.613281 46.300781 75.71875 50.34375 C 74.832031 54.382812 73.878906 57.257812 72.859375 58.96875 L 71.328125 61.546875 L 56.78125 55.3125 C 57.101562 54.875 57.488281 54.226562 57.9375 53.375 C 58.394531 52.519531 58.960938 50.828125 59.640625 48.296875 C 60.328125 45.773438 60.597656 43.25 60.453125 40.71875 C 60.222656 36.71875 59.363281 33.164062 57.875 30.0625 C 56.382812 26.957031 54.523438 24.539062 52.296875 22.8125 C 50.078125 21.082031 47.71875 19.800781 45.21875 18.96875 C 42.71875 18.132812 40.203125 17.789062 37.671875 17.9375 C 32.128906 18.257812 27.28125 20.625 23.125 25.03125 C 18.976562 29.4375 17.128906 35.5 17.578125 43.21875 Z M 17.578125 43.21875 "/></g></g></g></svg>