<svg width="28" height="28" viewBox="0 0 28 28" fill="none" xmlns="http://www.w3.org/2000/svg">
<path d="M7.15324 8.12129C7.54377 7.73076 8.14679 7.70062 8.50011 8.05395L20.6556 20.2094C21.009 20.5628 20.9788 21.1658 20.5883 21.5563C20.1977 21.9468 19.5947 21.977 19.2414 21.6237L7.0859 9.46816C6.73257 9.11483 6.76272 8.51182 7.15324 8.12129Z" fill="black"/>
<path d="M6.73135 20.276C6.32744 20.6527 6.30533 21.2854 6.682 21.6894C7.0586 22.0932 7.69137 22.1153 8.09528 21.7386L20.5283 10.1447C20.9322 9.76801 20.9543 9.13525 20.5777 8.73139C20.2011 8.32747 19.5683 8.30537 19.1644 8.68204L6.73135 20.276Z" fill="black"/>
</svg>
